<svg width="113" height="112" viewBox="0 0 113 112" fill="none" xmlns="http://www.w3.org/2000/svg">
<rect x="0.5" y="-0.000854492" width="112" height="112" rx="56" fill="#F1F1F1"/>
<path d="M28.5 30.9991C27.95 30.9991 27.5 31.4481 27.5 31.9991V71.9991C27.5 72.5491 27.95 72.9991 28.5 72.9991H44.5H46.5H49.5H51.5H61.5H63.5H66.5H68.5H84.5C85.05 72.9991 85.5 72.5491 85.5 71.9991V31.9991C85.5 31.4481 85.05 30.9991 84.5 30.9991H28.5Z" fill="#E6E9ED"/>
<path d="M50.5 72.9991L48.36 78.9991L47.29 81.9991L45.5 86.9991H40.5L45.5 72.9991H50.5Z" fill="#FFD2A6"/>
<path d="M58.5 24.9991C59.05 24.9991 59.5 25.4491 59.5 25.9991V27.9991C59.5 28.5501 59.05 28.9991 58.5 28.9991H54.5C53.95 28.9991 53.5 28.5501 53.5 27.9991V25.9991C53.5 25.4491 53.95 24.9991 54.5 24.9991H58.5Z" fill="#FFD2A6"/>
<path d="M85.5 27.9991C86.05 27.9991 86.5 28.4491 86.5 28.9991V30.9991C86.5 31.5491 86.05 31.9991 85.5 31.9991H27.5C26.95 31.9991 26.5 31.5491 26.5 30.9991V28.9991C26.5 28.4491 26.95 27.9991 27.5 27.9991H52.5H54.5H58.5H60.5H85.5Z" fill="#F76166"/>
<path d="M67.5 72.9991L72.5 86.9991H67.5L65.71 81.9991L64.64 78.9991L62.5 72.9991H67.5Z" fill="#FFD2A6"/>
<path d="M48.36 78.9991H64.64L65.71 81.9991H47.29L48.36 78.9991Z" fill="#F7C292"/>
<path d="M44.5 53.9991C45.61 53.9991 46.5 54.8991 46.5 55.9991C46.5 57.1081 45.61 57.9991 44.5 57.9991C43.4 57.9991 42.5 57.1081 42.5 55.9991C42.5 54.8991 43.4 53.9991 44.5 53.9991Z" fill="#AAB2BD"/>
<path d="M53.43 57.0691C53.48 56.7201 53.5 56.3581 53.5 55.9991C53.5 54.1491 52.94 52.4291 51.98 50.9991C50.37 48.5891 47.62 46.9991 44.5 46.9991C41.38 46.9991 38.63 48.5891 37.02 50.9991C36.06 52.4291 35.5 54.1491 35.5 55.9991C35.5 56.3581 35.52 56.7201 35.57 57.0691C36.09 61.5491 39.89 65.0091 44.5 65.0091C45.19 65.0091 45.87 64.9291 46.51 64.7791C50.17 63.9491 52.99 60.8691 53.43 57.0691ZM44.5 43.9991C51.13 43.9991 56.5 49.3791 56.5 55.9991C56.5 62.6291 51.13 68.0091 44.5 68.0091C37.87 68.0091 32.5 62.6291 32.5 55.9991C32.5 49.3791 37.87 43.9991 44.5 43.9991Z" fill="#F76166"/>
<path d="M51.98 50.9991H37.02C36.06 52.4291 35.5 54.1491 35.5 55.9991C35.5 56.3581 35.52 56.7201 35.57 57.0691C39.419 57.5891 42.387 60.8161 42.49 64.7741C43.137 64.9211 43.807 65.0081 44.5 65.0081C45.19 65.0081 45.87 64.9281 46.51 64.7781C46.611 60.8191 49.58 57.5891 53.43 57.0691C53.48 56.7201 53.5 56.3581 53.5 55.9991C53.5 54.1491 52.94 52.4291 51.98 50.9991ZM44.5 57.9991C43.4 57.9991 42.5 57.1081 42.5 55.9991C42.5 54.8991 43.4 53.9991 44.5 53.9991C45.61 53.9991 46.5 54.8991 46.5 55.9991C46.5 57.1081 45.61 57.9991 44.5 57.9991Z" fill="#545C66"/>
<path d="M80.502 48.0022H61.498C60.945 48.0022 60.498 47.5542 60.498 47.0022C60.498 46.4502 60.945 46.0022 61.498 46.0022H80.502C81.055 46.0022 81.502 46.4502 81.502 47.0022C81.502 47.5542 81.055 48.0022 80.502 48.0022Z" fill="#CCD1D9"/>
<path d="M71.5 37.9991H41.5C40.947 37.9991 40.5 37.5521 40.5 36.9991C40.5 36.4461 40.947 35.9991 41.5 35.9991H71.5C72.053 35.9991 72.5 36.4461 72.5 36.9991C72.5 37.5521 72.053 37.9991 71.5 37.9991Z" fill="#CCD1D9"/>
<path d="M61.5 40.9991H51.5C50.947 40.9991 50.5 40.5521 50.5 39.9991C50.5 39.4461 50.947 38.9991 51.5 38.9991H61.5C62.053 38.9991 62.5 39.4461 62.5 39.9991C62.5 40.5521 62.053 40.9991 61.5 40.9991Z" fill="#CCD1D9"/>
<path d="M80.502 51.0022H61.498C60.945 51.0022 60.498 50.5542 60.498 50.0022C60.498 49.4502 60.945 49.0022 61.498 49.0022H80.502C81.055 49.0022 81.502 49.4502 81.502 50.0022C81.502 50.5542 81.055 51.0022 80.502 51.0022Z" fill="#CCD1D9"/>
<path d="M72.502 54.0022H61.498C60.945 54.0022 60.498 53.5542 60.498 53.0022C60.498 52.4502 60.945 52.0022 61.498 52.0022H72.502C73.055 52.0022 73.502 52.4502 73.502 53.0022C73.502 53.5542 73.055 54.0022 72.502 54.0022Z" fill="#CCD1D9"/>
<path d="M72.499 59.0032H64.498C63.945 59.0032 63.498 58.5562 63.498 58.0032C63.498 57.4502 63.945 57.0032 64.498 57.0032H72.499C73.052 57.0032 73.499 57.4502 73.499 58.0032C73.499 58.5562 73.052 59.0032 72.499 59.0032Z" fill="#CCD1D9"/>
<path d="M61.528 59.0032C60.975 59.0032 60.5229 58.5562 60.5229 58.0032C60.5229 57.4502 60.9649 57.0032 61.5169 57.0032H61.528C62.08 57.0032 62.528 57.4502 62.528 58.0032C62.528 58.5562 62.08 59.0032 61.528 59.0032Z" fill="#F76166"/>
<path d="M72.499 63.0061H64.498C63.945 63.0061 63.498 62.5591 63.498 62.0061C63.498 61.4531 63.945 61.0061 64.498 61.0061H72.499C73.052 61.0061 73.499 61.4531 73.499 62.0061C73.499 62.5591 73.052 63.0061 72.499 63.0061Z" fill="#CCD1D9"/>
<path d="M61.528 63.0061C60.975 63.0061 60.5229 62.5591 60.5229 62.0061C60.5229 61.4531 60.9649 61.0061 61.5169 61.0061H61.528C62.08 61.0061 62.528 61.4531 62.528 62.0061C62.528 62.5591 62.08 63.0061 61.528 63.0061Z" fill="#F76166"/>
<path d="M72.499 67.0082H64.498C63.945 67.0082 63.498 66.5612 63.498 66.0082C63.498 65.4552 63.945 65.0082 64.498 65.0082H72.499C73.052 65.0082 73.499 65.4552 73.499 66.0082C73.499 66.5612 73.052 67.0082 72.499 67.0082Z" fill="#CCD1D9"/>
<path d="M61.528 67.0082C60.975 67.0082 60.5229 66.5612 60.5229 66.0082C60.5229 65.4552 60.9649 65.0082 61.5169 65.0082H61.528C62.08 65.0082 62.528 65.4552 62.528 66.0082C62.528 66.5612 62.08 67.0082 61.528 67.0082Z" fill="#F76166"/>
</svg>
