<svg width="36" height="37" viewBox="0 0 36 37" fill="none" xmlns="http://www.w3.org/2000/svg">
<rect y="0.5" width="36" height="36" rx="18" fill="#F1F1F1"/>
<g clip-path="url(#clip0_33_2823)">
<path d="M7.5 9.125C7.29375 9.125 7.125 9.29338 7.125 9.5V24.5C7.125 24.7063 7.29375 24.875 7.5 24.875H13.5H14.25H15.375H16.125H19.875H20.625H21.75H22.5H28.5C28.7062 24.875 28.875 24.7063 28.875 24.5V9.5C28.875 9.29338 28.7062 9.125 28.5 9.125H7.5Z" fill="#E6E9ED"/>
<path d="M15.75 24.875L14.9475 27.125L14.5463 28.25L13.875 30.125H12L13.875 24.875H15.75Z" fill="#FFD2A6"/>
<path d="M18.75 6.875C18.9562 6.875 19.125 7.04375 19.125 7.25V8C19.125 8.20662 18.9562 8.375 18.75 8.375H17.25C17.0437 8.375 16.875 8.20662 16.875 8V7.25C16.875 7.04375 17.0437 6.875 17.25 6.875H18.75Z" fill="#FFD2A6"/>
<path d="M28.875 8C29.0812 8 29.25 8.16875 29.25 8.375V9.125C29.25 9.33125 29.0812 9.5 28.875 9.5H7.125C6.91875 9.5 6.75 9.33125 6.75 9.125V8.375C6.75 8.16875 6.91875 8 7.125 8H16.5H17.25H18.75H19.5H28.875Z" fill="#F76166"/>
<path d="M22.125 24.875L24 30.125H22.125L21.4537 28.25L21.0525 27.125L20.25 24.875H22.125Z" fill="#FFD2A6"/>
<path d="M14.9475 27.125H21.0525L21.4538 28.25H14.5463L14.9475 27.125Z" fill="#F7C292"/>
<path d="M13.5 17.75C13.9162 17.75 14.25 18.0875 14.25 18.5C14.25 18.9159 13.9162 19.25 13.5 19.25C13.0875 19.25 12.75 18.9159 12.75 18.5C12.75 18.0875 13.0875 17.75 13.5 17.75Z" fill="#AAB2BD"/>
<path d="M16.8488 18.9013C16.8675 18.7704 16.875 18.6346 16.875 18.5C16.875 17.8063 16.665 17.1613 16.305 16.625C15.7012 15.7213 14.67 15.125 13.5 15.125C12.33 15.125 11.2988 15.7213 10.695 16.625C10.335 17.1613 10.125 17.8063 10.125 18.5C10.125 18.6346 10.1325 18.7704 10.1512 18.9013C10.3462 20.5813 11.7713 21.8787 13.5 21.8787C13.7587 21.8787 14.0138 21.8488 14.2537 21.7925C15.6263 21.4813 16.6838 20.3263 16.8488 18.9013ZM13.5 14C15.9862 14 18 16.0175 18 18.5C18 20.9863 15.9862 23.0037 13.5 23.0037C11.0138 23.0037 9 20.9863 9 18.5C9 16.0175 11.0138 14 13.5 14Z" fill="#F76166"/>
<path d="M16.305 16.625H10.695C10.335 17.1612 10.125 17.8062 10.125 18.5C10.125 18.6346 10.1325 18.7704 10.1512 18.9012C11.5946 19.0962 12.7076 20.3064 12.7462 21.7906C12.9889 21.8458 13.2401 21.8784 13.5 21.8784C13.7587 21.8784 14.0138 21.8484 14.2537 21.7921C14.2916 20.3075 15.405 19.0962 16.8488 18.9012C16.8675 18.7704 16.875 18.6346 16.875 18.5C16.875 17.8062 16.665 17.1612 16.305 16.625ZM13.5 19.25C13.0875 19.25 12.75 18.9159 12.75 18.5C12.75 18.0875 13.0875 17.75 13.5 17.75C13.9162 17.75 14.25 18.0875 14.25 18.5C14.25 18.9159 13.9162 19.25 13.5 19.25Z" fill="#545C66"/>
<path d="M27.0007 15.5012H19.8742C19.6669 15.5012 19.4992 15.3332 19.4992 15.1262C19.4992 14.9192 19.6669 14.7512 19.8742 14.7512H27.0007C27.2081 14.7512 27.3757 14.9192 27.3757 15.1262C27.3757 15.3332 27.2081 15.5012 27.0007 15.5012Z" fill="#CCD1D9"/>
<path d="M23.625 11.75H12.375C12.1676 11.75 12 11.5824 12 11.375C12 11.1676 12.1676 11 12.375 11H23.625C23.8324 11 24 11.1676 24 11.375C24 11.5824 23.8324 11.75 23.625 11.75Z" fill="#CCD1D9"/>
<path d="M19.875 12.875H16.125C15.9176 12.875 15.75 12.7074 15.75 12.5C15.75 12.2926 15.9176 12.125 16.125 12.125H19.875C20.0824 12.125 20.25 12.2926 20.25 12.5C20.25 12.7074 20.0824 12.875 19.875 12.875Z" fill="#CCD1D9"/>
<path d="M27.0007 16.6262H19.8742C19.6669 16.6262 19.4992 16.4582 19.4992 16.2512C19.4992 16.0442 19.6669 15.8762 19.8742 15.8762H27.0007C27.2081 15.8762 27.3757 16.0442 27.3757 16.2512C27.3757 16.4582 27.2081 16.6262 27.0007 16.6262Z" fill="#CCD1D9"/>
<path d="M24.0007 17.7512H19.8742C19.6669 17.7512 19.4992 17.5832 19.4992 17.3762C19.4992 17.1692 19.6669 17.0012 19.8742 17.0012H24.0007C24.2081 17.0012 24.3757 17.1692 24.3757 17.3762C24.3757 17.5832 24.2081 17.7512 24.0007 17.7512Z" fill="#CCD1D9"/>
<path d="M23.9996 19.6265H20.9992C20.7919 19.6265 20.6242 19.4588 20.6242 19.2515C20.6242 19.0441 20.7919 18.8765 20.9992 18.8765H23.9996C24.207 18.8765 24.3746 19.0441 24.3746 19.2515C24.3746 19.4588 24.207 19.6265 23.9996 19.6265Z" fill="#CCD1D9"/>
<path d="M19.8855 19.6265C19.6781 19.6265 19.5086 19.4588 19.5086 19.2515C19.5086 19.0441 19.6744 18.8765 19.8814 18.8765H19.8855C20.0925 18.8765 20.2605 19.0441 20.2605 19.2515C20.2605 19.4588 20.0925 19.6265 19.8855 19.6265Z" fill="#F76166"/>
<path d="M23.9996 21.1277H20.9992C20.7919 21.1277 20.6242 20.9601 20.6242 20.7527C20.6242 20.5453 20.7919 20.3777 20.9992 20.3777H23.9996C24.207 20.3777 24.3746 20.5453 24.3746 20.7527C24.3746 20.9601 24.207 21.1277 23.9996 21.1277Z" fill="#CCD1D9"/>
<path d="M19.8855 21.1277C19.6781 21.1277 19.5086 20.9601 19.5086 20.7527C19.5086 20.5453 19.6744 20.3777 19.8814 20.3777H19.8855C20.0925 20.3777 20.2605 20.5453 20.2605 20.7527C20.2605 20.9601 20.0925 21.1277 19.8855 21.1277Z" fill="#F76166"/>
<path d="M23.9996 22.6284H20.9992C20.7919 22.6284 20.6242 22.4608 20.6242 22.2534C20.6242 22.046 20.7919 21.8784 20.9992 21.8784H23.9996C24.207 21.8784 24.3746 22.046 24.3746 22.2534C24.3746 22.4608 24.207 22.6284 23.9996 22.6284Z" fill="#CCD1D9"/>
<path d="M19.8855 22.6284C19.6781 22.6284 19.5086 22.4608 19.5086 22.2534C19.5086 22.046 19.6744 21.8784 19.8814 21.8784H19.8855C20.0925 21.8784 20.2605 22.046 20.2605 22.2534C20.2605 22.4608 20.0925 22.6284 19.8855 22.6284Z" fill="#F76166"/>
</g>
<defs>
<clipPath id="clip0_33_2823">
<rect width="24" height="24" fill="white" transform="translate(6 6.5)"/>
</clipPath>
</defs>
</svg>
