<svg width="375" height="262" viewBox="0 0 375 262" fill="none" xmlns="http://www.w3.org/2000/svg">
<path d="M323.035 88.7443C323.035 88.7443 295.414 34.4368 237.738 13.3847C180.062 -7.66742 153.41 10.7192 123.861 30.6108C100.578 46.2684 82.3907 68.9977 63.3399 89.0253C45.8861 107.412 20.3163 121.664 12.2439 147.114C2.04216 179.299 25.1684 214.06 52.5796 232.782C90.8733 258.875 127.998 242.909 167.984 236.78H168.211C174.016 235.855 179.879 235.37 185.752 235.329C232.197 235.429 265.525 269.5 299.359 234.423C333.193 199.345 338.595 131.012 323.035 88.7443Z" fill="url(#paint0_linear_24_1917)"/>
<path opacity="0.75" d="M323.035 88.7443C323.035 88.7443 295.414 34.4368 237.738 13.3847C180.062 -7.66742 153.41 10.7192 123.861 30.6108C100.578 46.2684 82.3907 68.9977 63.3399 89.0253C45.8861 107.412 20.3163 121.664 12.2439 147.114C2.04216 179.299 25.1684 214.06 52.5796 232.782C90.8733 258.875 127.998 242.909 167.984 236.78H168.211C174.016 235.855 179.879 235.37 185.752 235.329C232.197 235.429 265.525 269.5 299.359 234.423C333.193 199.345 338.595 131.012 323.035 88.7443Z" fill="white"/>
<path d="M304.333 78.9706C301.549 77.393 300.284 78.7077 299.263 77.393C298.242 76.0784 302.055 72.6513 294.454 69.2333C294.454 69.2333 293.948 61.8624 283.554 61.5994C273.161 61.3365 275.988 68.9341 273.169 70.8109C270.351 72.6876 269.618 69.7592 266.834 71.5996C264.05 73.4401 265.306 77.1301 263.029 77.656C260.751 78.1818 257.705 75.2896 254.921 77.1301C252.138 78.9706 252.129 80.5481 250.863 80.5481C249.598 80.5481 247.067 79.4964 245.54 80.5481C244.013 81.5998 242.25 82.9235 242.25 82.9235H306.358C306.358 82.9235 307.126 80.5119 304.333 78.9706Z" fill="white" stroke="#263238" stroke-miterlimit="10"/>
<path d="M146.481 101.637C145.216 100.92 144.64 101.519 144.186 100.92C143.732 100.322 145.451 98.7716 141.996 97.2212C141.996 97.2212 141.769 93.8666 137.047 93.7488C132.326 93.6309 133.6 97.0943 132.335 97.9374C131.069 98.7806 130.729 97.4569 129.464 98.291C128.198 99.1251 128.766 100.802 127.718 101.011C126.671 101.219 125.301 99.9411 124.036 100.775C122.77 101.609 122.77 102.326 122.194 102.326C121.618 102.326 120.449 101.854 119.777 102.326C119.105 102.797 118.285 103.404 118.285 103.404H147.389C147.463 103.046 147.413 102.671 147.247 102.348C147.081 102.024 146.809 101.772 146.481 101.637Z" fill="white" stroke="#263238" stroke-miterlimit="10"/>
<path d="M170.061 25.4791C168.316 24.4999 167.531 25.3159 166.893 24.4999C166.256 23.6839 168.639 21.5352 163.891 19.4046C163.891 19.4046 163.577 14.7989 157.093 14.6357C150.609 14.4725 152.346 19.2414 150.6 20.3838C148.855 21.5261 148.392 19.731 146.647 20.8824C144.902 22.0338 145.705 24.3276 144.273 24.6631C142.842 24.9985 140.957 23.1853 139.22 24.3276C137.484 25.47 137.475 26.4673 136.69 26.4673C135.904 26.4673 134.316 25.8054 133.365 26.4673C132.413 27.1291 131.305 27.9451 131.305 27.9451H171.327C171.437 27.4446 171.37 26.9195 171.138 26.4664C170.905 26.0133 170.523 25.6627 170.061 25.4791Z" fill="white" stroke="#263238" stroke-miterlimit="10"/>
<path d="M57.6063 115.871H50.4851V123.323H57.6063V115.871Z" stroke="#263238" stroke-miterlimit="10"/>
<path d="M45.6854 120.377H42.7968V123.314H45.6854V120.377Z" stroke="#263238" stroke-miterlimit="10"/>
<path d="M335.209 162.925H308.225V103.794H310.032V97.6656H246.823V103.794H249.013V191.729H232.432V3.06714H175.577V145.744H154.798V129.951H160.235V123.269H114.785V27.5463H117.726V22.5417H62.5457V27.5463H66.5077V123.432H22.8994V192.001H0" stroke="#263238" stroke-miterlimit="10"/>
<path d="M234.693 1H173.046V3.049H234.693V1Z" stroke="#263238" stroke-miterlimit="10"/>
<path d="M78.385 33.113H71.4384V40.8376H78.385V33.113Z" stroke="#263238" stroke-miterlimit="10"/>
<path d="M88.5693 33.113H81.6227V40.8376H88.5693V33.113Z" stroke="#263238" stroke-miterlimit="10"/>
<path d="M98.7535 33.113H91.8069V40.8376H98.7535V33.113Z" stroke="#263238" stroke-miterlimit="10"/>
<path d="M108.947 33.113H102V40.8376H108.947V33.113Z" stroke="#263238" stroke-miterlimit="10"/>
<path d="M78.385 45.3618H71.4384V53.0864H78.385V45.3618Z" stroke="#263238" stroke-miterlimit="10"/>
<path d="M88.5693 45.3618H81.6227V53.0864H88.5693V45.3618Z" stroke="#263238" stroke-miterlimit="10"/>
<path d="M98.7535 45.3618H91.8069V53.0864H98.7535V45.3618Z" stroke="#263238" stroke-miterlimit="10"/>
<path d="M108.947 45.3618H102V53.0864H108.947V45.3618Z" stroke="#263238" stroke-miterlimit="10"/>
<path d="M78.385 57.6013H71.4384V65.3259H78.385V57.6013Z" stroke="#263238" stroke-miterlimit="10"/>
<path d="M88.5693 57.6013H81.6227V65.3259H88.5693V57.6013Z" stroke="#263238" stroke-miterlimit="10"/>
<path d="M98.7535 57.6013H91.8069V65.3259H98.7535V57.6013Z" stroke="#263238" stroke-miterlimit="10"/>
<path d="M108.947 57.6013H102V65.3259H108.947V57.6013Z" stroke="#263238" stroke-miterlimit="10"/>
<path d="M78.385 69.8408H71.4384V77.5654H78.385V69.8408Z" stroke="#263238" stroke-miterlimit="10"/>
<path d="M88.5693 69.8408H81.6227V77.5654H88.5693V69.8408Z" stroke="#263238" stroke-miterlimit="10"/>
<path d="M98.7535 69.8408H91.8069V77.5654H98.7535V69.8408Z" stroke="#263238" stroke-miterlimit="10"/>
<path d="M108.947 69.8408H102V77.5654H108.947V69.8408Z" stroke="#263238" stroke-miterlimit="10"/>
<path d="M78.385 82.0896H71.4384V89.8141H78.385V82.0896Z" stroke="#263238" stroke-miterlimit="10"/>
<path d="M88.5693 82.0896H81.6227V89.8141H88.5693V82.0896Z" stroke="#263238" stroke-miterlimit="10"/>
<path d="M98.7535 82.0896H91.8069V89.8141H98.7535V82.0896Z" stroke="#263238" stroke-miterlimit="10"/>
<path d="M108.947 82.0896H102V89.8141H108.947V82.0896Z" stroke="#263238" stroke-miterlimit="10"/>
<path d="M78.385 94.3291H71.4384V102.054H78.385V94.3291Z" stroke="#263238" stroke-miterlimit="10"/>
<path d="M88.5693 94.3291H81.6227V102.054H88.5693V94.3291Z" stroke="#263238" stroke-miterlimit="10"/>
<path d="M98.7535 94.3291H91.8069V102.054H98.7535V94.3291Z" stroke="#263238" stroke-miterlimit="10"/>
<path d="M108.947 94.3291H102V102.054H108.947V94.3291Z" stroke="#263238" stroke-miterlimit="10"/>
<path d="M78.385 106.578H71.4384V114.302H78.385V106.578Z" stroke="#263238" stroke-miterlimit="10"/>
<path d="M88.5693 106.578H81.6227V114.302H88.5693V106.578Z" stroke="#263238" stroke-miterlimit="10"/>
<path d="M98.7535 106.578H91.8069V114.302H98.7535V106.578Z" stroke="#263238" stroke-miterlimit="10"/>
<path d="M108.947 106.578H102V114.302H108.947V106.578Z" stroke="#263238" stroke-miterlimit="10"/>
<path d="M78.385 118.817H71.4384V126.542H78.385V118.817Z" stroke="#263238" stroke-miterlimit="10"/>
<path d="M88.5693 118.817H81.6227V126.542H88.5693V118.817Z" stroke="#263238" stroke-miterlimit="10"/>
<path d="M98.7535 118.817H91.8069V126.542H98.7535V118.817Z" stroke="#263238" stroke-miterlimit="10"/>
<path d="M108.947 118.817H102V126.542H108.947V118.817Z" stroke="#263238" stroke-miterlimit="10"/>
<path d="M78.385 130.014H71.4384V137.739H78.385V130.014Z" stroke="#263238" stroke-miterlimit="10"/>
<path d="M88.5693 130.014H81.6227V137.739H88.5693V130.014Z" stroke="#263238" stroke-miterlimit="10"/>
<path d="M98.7535 130.014H91.8069V137.739H98.7535V130.014Z" stroke="#263238" stroke-miterlimit="10"/>
<path d="M108.947 130.014H102V137.739H108.947V130.014Z" stroke="#263238" stroke-miterlimit="10"/>
<path d="M78.385 142.263H71.4384V149.987H78.385V142.263Z" stroke="#263238" stroke-miterlimit="10"/>
<path d="M88.5693 142.263H81.6227V149.987H88.5693V142.263Z" stroke="#263238" stroke-miterlimit="10"/>
<path d="M98.7535 142.263H91.8069V149.987H98.7535V142.263Z" stroke="#263238" stroke-miterlimit="10"/>
<path d="M108.947 142.263H102V149.987H108.947V142.263Z" stroke="#263238" stroke-miterlimit="10"/>
<path d="M78.385 154.503H71.4384V162.227H78.385V154.503Z" stroke="#263238" stroke-miterlimit="10"/>
<path d="M88.5693 154.503H81.6227V162.227H88.5693V154.503Z" stroke="#263238" stroke-miterlimit="10"/>
<path d="M98.7535 154.503H91.8069V162.227H98.7535V154.503Z" stroke="#263238" stroke-miterlimit="10"/>
<path d="M108.947 154.503H102V162.227H108.947V154.503Z" stroke="#263238" stroke-miterlimit="10"/>
<path d="M78.385 166.742H71.4384V174.467H78.385V166.742Z" stroke="#263238" stroke-miterlimit="10"/>
<path d="M88.5693 166.742H81.6227V174.467H88.5693V166.742Z" stroke="#263238" stroke-miterlimit="10"/>
<path d="M98.7535 166.742H91.8069V174.467H98.7535V166.742Z" stroke="#263238" stroke-miterlimit="10"/>
<path d="M108.947 166.742H102V174.467H108.947V166.742Z" stroke="#263238" stroke-miterlimit="10"/>
<path d="M78.385 178.991H71.4384V186.715H78.385V178.991Z" stroke="#263238" stroke-miterlimit="10"/>
<path d="M88.5693 178.991H81.6227V186.715H88.5693V178.991Z" stroke="#263238" stroke-miterlimit="10"/>
<path d="M98.7535 178.991H91.8069V186.715H98.7535V178.991Z" stroke="#263238" stroke-miterlimit="10"/>
<path d="M108.947 178.991H102V186.715H108.947V178.991Z" stroke="#263238" stroke-miterlimit="10"/>
<path d="M78.385 191.23H71.4384V198.955H78.385V191.23Z" stroke="#263238" stroke-miterlimit="10"/>
<path d="M88.5693 191.23H81.6227V198.955H88.5693V191.23Z" stroke="#263238" stroke-miterlimit="10"/>
<path d="M98.7535 191.23H91.8069V198.955H98.7535V191.23Z" stroke="#263238" stroke-miterlimit="10"/>
<path d="M108.947 191.23H102V198.955H108.947V191.23Z" stroke="#263238" stroke-miterlimit="10"/>
<path d="M78.385 203.479H71.4384V211.204H78.385V203.479Z" stroke="#263238" stroke-miterlimit="10"/>
<path d="M88.5693 203.479H81.6227V211.204H88.5693V203.479Z" stroke="#263238" stroke-miterlimit="10"/>
<path d="M98.7535 203.479H91.8069V211.204H98.7535V203.479Z" stroke="#263238" stroke-miterlimit="10"/>
<path d="M108.947 203.479H102V211.204H108.947V203.479Z" stroke="#263238" stroke-miterlimit="10"/>
<path d="M78.385 215.719H71.4384V223.443H78.385V215.719Z" stroke="#263238" stroke-miterlimit="10"/>
<path d="M88.5693 215.719H81.6227V223.443H88.5693V215.719Z" stroke="#263238" stroke-miterlimit="10"/>
<path d="M98.7535 215.719H91.8069V223.443H98.7535V215.719Z" stroke="#263238" stroke-miterlimit="10"/>
<path d="M108.947 215.719H102V223.443H108.947V215.719Z" stroke="#263238" stroke-miterlimit="10"/>
<path d="M118.171 130.014H111.224V137.739H118.171V130.014Z" stroke="#263238" stroke-miterlimit="10"/>
<path d="M128.355 130.014H121.409V137.739H128.355V130.014Z" stroke="#263238" stroke-miterlimit="10"/>
<path d="M138.54 130.014H131.593V137.739H138.54V130.014Z" stroke="#263238" stroke-miterlimit="10"/>
<path d="M148.724 130.014H141.777V137.739H148.724V130.014Z" stroke="#263238" stroke-miterlimit="10"/>
<path d="M118.171 142.263H111.224V149.987H118.171V142.263Z" stroke="#263238" stroke-miterlimit="10"/>
<path d="M128.355 142.263H121.409V149.987H128.355V142.263Z" stroke="#263238" stroke-miterlimit="10"/>
<path d="M138.54 142.263H131.593V149.987H138.54V142.263Z" stroke="#263238" stroke-miterlimit="10"/>
<path d="M148.724 142.263H141.777V149.987H148.724V142.263Z" stroke="#263238" stroke-miterlimit="10"/>
<path d="M118.171 154.503H111.224V162.227H118.171V154.503Z" stroke="#263238" stroke-miterlimit="10"/>
<path d="M128.355 154.503H121.409V162.227H128.355V154.503Z" stroke="#263238" stroke-miterlimit="10"/>
<path d="M138.54 154.503H131.593V162.227H138.54V154.503Z" stroke="#263238" stroke-miterlimit="10"/>
<path d="M148.724 154.503H141.777V162.227H148.724V154.503Z" stroke="#263238" stroke-miterlimit="10"/>
<path d="M118.171 166.742H111.224V174.467H118.171V166.742Z" stroke="#263238" stroke-miterlimit="10"/>
<path d="M128.355 166.742H121.409V174.467H128.355V166.742Z" stroke="#263238" stroke-miterlimit="10"/>
<path d="M138.54 166.742H131.593V174.467H138.54V166.742Z" stroke="#263238" stroke-miterlimit="10"/>
<path d="M148.724 166.742H141.777V174.467H148.724V166.742Z" stroke="#263238" stroke-miterlimit="10"/>
<path d="M118.171 178.991H111.224V186.715H118.171V178.991Z" stroke="#263238" stroke-miterlimit="10"/>
<path d="M128.355 178.991H121.409V186.715H128.355V178.991Z" stroke="#263238" stroke-miterlimit="10"/>
<path d="M138.54 178.991H131.593V186.715H138.54V178.991Z" stroke="#263238" stroke-miterlimit="10"/>
<path d="M148.724 178.991H141.777V186.715H148.724V178.991Z" stroke="#263238" stroke-miterlimit="10"/>
<path d="M118.171 191.23H111.224V198.955H118.171V191.23Z" stroke="#263238" stroke-miterlimit="10"/>
<path d="M128.355 191.23H121.409V198.955H128.355V191.23Z" stroke="#263238" stroke-miterlimit="10"/>
<path d="M138.54 191.23H131.593V198.955H138.54V191.23Z" stroke="#263238" stroke-miterlimit="10"/>
<path d="M148.724 191.23H141.777V198.955H148.724V191.23Z" stroke="#263238" stroke-miterlimit="10"/>
<path d="M118.171 203.479H111.224V211.204H118.171V203.479Z" stroke="#263238" stroke-miterlimit="10"/>
<path d="M128.355 203.479H121.409V211.204H128.355V203.479Z" stroke="#263238" stroke-miterlimit="10"/>
<path d="M138.54 203.479H131.593V211.204H138.54V203.479Z" stroke="#263238" stroke-miterlimit="10"/>
<path d="M148.724 203.479H141.777V211.204H148.724V203.479Z" stroke="#263238" stroke-miterlimit="10"/>
<path d="M118.171 215.719H111.224V223.443H118.171V215.719Z" stroke="#263238" stroke-miterlimit="10"/>
<path d="M128.355 215.719H121.409V223.443H128.355V215.719Z" stroke="#263238" stroke-miterlimit="10"/>
<path d="M138.54 215.719H131.593V223.443H138.54V215.719Z" stroke="#263238" stroke-miterlimit="10"/>
<path d="M148.724 215.719H141.777V223.443H148.724V215.719Z" stroke="#263238" stroke-miterlimit="10"/>
<path d="M38.0493 130.014H31.1027V137.739H38.0493V130.014Z" stroke="#263238" stroke-miterlimit="10"/>
<path d="M48.2336 130.014H41.287V137.739H48.2336V130.014Z" stroke="#263238" stroke-miterlimit="10"/>
<path d="M58.418 130.014H51.4714V137.739H58.418V130.014Z" stroke="#263238" stroke-miterlimit="10"/>
<path d="M68.6021 130.014H61.6555V137.739H68.6021V130.014Z" stroke="#263238" stroke-miterlimit="10"/>
<path d="M38.0493 142.263H31.1027V149.987H38.0493V142.263Z" stroke="#263238" stroke-miterlimit="10"/>
<path d="M48.2336 142.263H41.287V149.987H48.2336V142.263Z" stroke="#263238" stroke-miterlimit="10"/>
<path d="M58.418 142.263H51.4714V149.987H58.418V142.263Z" stroke="#263238" stroke-miterlimit="10"/>
<path d="M68.6021 142.263H61.6555V149.987H68.6021V142.263Z" stroke="#263238" stroke-miterlimit="10"/>
<path d="M38.0493 154.503H31.1027V162.227H38.0493V154.503Z" stroke="#263238" stroke-miterlimit="10"/>
<path d="M48.2336 154.503H41.287V162.227H48.2336V154.503Z" stroke="#263238" stroke-miterlimit="10"/>
<path d="M58.418 154.503H51.4714V162.227H58.418V154.503Z" stroke="#263238" stroke-miterlimit="10"/>
<path d="M68.6021 154.503H61.6555V162.227H68.6021V154.503Z" stroke="#263238" stroke-miterlimit="10"/>
<path d="M38.0493 166.742H31.1027V174.467H38.0493V166.742Z" stroke="#263238" stroke-miterlimit="10"/>
<path d="M48.2336 166.742H41.287V174.467H48.2336V166.742Z" stroke="#263238" stroke-miterlimit="10"/>
<path d="M58.418 166.742H51.4714V174.467H58.418V166.742Z" stroke="#263238" stroke-miterlimit="10"/>
<path d="M68.6021 166.742H61.6555V174.467H68.6021V166.742Z" stroke="#263238" stroke-miterlimit="10"/>
<path d="M38.0493 178.991H31.1027V186.715H38.0493V178.991Z" stroke="#263238" stroke-miterlimit="10"/>
<path d="M48.2336 178.991H41.287V186.715H48.2336V178.991Z" stroke="#263238" stroke-miterlimit="10"/>
<path d="M58.418 178.991H51.4714V186.715H58.418V178.991Z" stroke="#263238" stroke-miterlimit="10"/>
<path d="M68.6021 178.991H61.6555V186.715H68.6021V178.991Z" stroke="#263238" stroke-miterlimit="10"/>
<path d="M38.0493 191.23H31.1027V198.955H38.0493V191.23Z" stroke="#263238" stroke-miterlimit="10"/>
<path d="M48.2336 191.23H41.287V198.955H48.2336V191.23Z" stroke="#263238" stroke-miterlimit="10"/>
<path d="M58.418 191.23H51.4714V198.955H58.418V191.23Z" stroke="#263238" stroke-miterlimit="10"/>
<path d="M68.6021 191.23H61.6555V198.955H68.6021V191.23Z" stroke="#263238" stroke-miterlimit="10"/>
<path d="M38.0493 203.479H31.1027V211.204H38.0493V203.479Z" stroke="#263238" stroke-miterlimit="10"/>
<path d="M48.2336 203.479H41.287V211.204H48.2336V203.479Z" stroke="#263238" stroke-miterlimit="10"/>
<path d="M58.418 203.479H51.4714V211.204H58.418V203.479Z" stroke="#263238" stroke-miterlimit="10"/>
<path d="M68.6021 203.479H61.6555V211.204H68.6021V203.479Z" stroke="#263238" stroke-miterlimit="10"/>
<path d="M38.0493 215.719H31.1027V223.443H38.0493V215.719Z" stroke="#263238" stroke-miterlimit="10"/>
<path d="M48.2336 215.719H41.287V223.443H48.2336V215.719Z" stroke="#263238" stroke-miterlimit="10"/>
<path d="M58.418 215.719H51.4714V223.443H58.418V215.719Z" stroke="#263238" stroke-miterlimit="10"/>
<path d="M68.6021 215.719H61.6555V223.443H68.6021V215.719Z" stroke="#263238" stroke-miterlimit="10"/>
<path d="M265.551 106.016H258.604V113.74H265.551V106.016Z" stroke="#263238" stroke-miterlimit="10"/>
<path d="M275.735 106.016H268.789V113.74H275.735V106.016Z" stroke="#263238" stroke-miterlimit="10"/>
<path d="M285.92 106.016H278.973V113.74H285.92V106.016Z" stroke="#263238" stroke-miterlimit="10"/>
<path d="M296.104 106.016H289.157V113.74H296.104V106.016Z" stroke="#263238" stroke-miterlimit="10"/>
<path d="M265.551 118.264H258.604V125.989H265.551V118.264Z" stroke="#263238" stroke-miterlimit="10"/>
<path d="M275.735 118.264H268.789V125.989H275.735V118.264Z" stroke="#263238" stroke-miterlimit="10"/>
<path d="M285.92 118.264H278.973V125.989H285.92V118.264Z" stroke="#263238" stroke-miterlimit="10"/>
<path d="M296.104 118.264H289.157V125.989H296.104V118.264Z" stroke="#263238" stroke-miterlimit="10"/>
<path d="M265.551 130.504H258.604V138.228H265.551V130.504Z" stroke="#263238" stroke-miterlimit="10"/>
<path d="M275.735 130.504H268.789V138.228H275.735V130.504Z" stroke="#263238" stroke-miterlimit="10"/>
<path d="M285.92 130.504H278.973V138.228H285.92V130.504Z" stroke="#263238" stroke-miterlimit="10"/>
<path d="M296.104 130.504H289.157V138.228H296.104V130.504Z" stroke="#263238" stroke-miterlimit="10"/>
<path d="M265.551 142.744H258.604V150.468H265.551V142.744Z" stroke="#263238" stroke-miterlimit="10"/>
<path d="M275.735 142.744H268.789V150.468H275.735V142.744Z" stroke="#263238" stroke-miterlimit="10"/>
<path d="M285.92 142.744H278.973V150.468H285.92V142.744Z" stroke="#263238" stroke-miterlimit="10"/>
<path d="M296.104 142.744H289.157V150.468H296.104V142.744Z" stroke="#263238" stroke-miterlimit="10"/>
<path d="M265.551 154.992H258.604V162.717H265.551V154.992Z" stroke="#263238" stroke-miterlimit="10"/>
<path d="M275.735 154.992H268.789V162.717H275.735V154.992Z" stroke="#263238" stroke-miterlimit="10"/>
<path d="M285.92 154.992H278.973V162.717H285.92V154.992Z" stroke="#263238" stroke-miterlimit="10"/>
<path d="M296.104 154.992H289.157V162.717H296.104V154.992Z" stroke="#263238" stroke-miterlimit="10"/>
<path d="M265.551 167.232H258.604V174.956H265.551V167.232Z" stroke="#263238" stroke-miterlimit="10"/>
<path d="M275.735 167.232H268.789V174.956H275.735V167.232Z" stroke="#263238" stroke-miterlimit="10"/>
<path d="M285.92 167.232H278.973V174.956H285.92V167.232Z" stroke="#263238" stroke-miterlimit="10"/>
<path d="M296.104 167.232H289.157V174.956H296.104V167.232Z" stroke="#263238" stroke-miterlimit="10"/>
<path d="M265.551 179.48H258.604V187.205H265.551V179.48Z" stroke="#263238" stroke-miterlimit="10"/>
<path d="M275.735 179.48H268.789V187.205H275.735V179.48Z" stroke="#263238" stroke-miterlimit="10"/>
<path d="M285.92 179.48H278.973V187.205H285.92V179.48Z" stroke="#263238" stroke-miterlimit="10"/>
<path d="M296.104 179.48H289.157V187.205H296.104V179.48Z" stroke="#263238" stroke-miterlimit="10"/>
<path d="M265.551 191.72H258.604V199.445H265.551V191.72Z" stroke="#263238" stroke-miterlimit="10"/>
<path d="M275.735 191.72H268.789V199.445H275.735V191.72Z" stroke="#263238" stroke-miterlimit="10"/>
<path d="M285.92 191.72H278.973V199.445H285.92V191.72Z" stroke="#263238" stroke-miterlimit="10"/>
<path d="M296.104 191.72H289.157V199.445H296.104V191.72Z" stroke="#263238" stroke-miterlimit="10"/>
<path d="M180.935 7.5188V231.231" stroke="#263238" stroke-miterlimit="10"/>
<path d="M187.82 7.5188V231.231" stroke="#263238" stroke-miterlimit="10"/>
<path d="M194.706 7.5188V231.231" stroke="#263238" stroke-miterlimit="10"/>
<path d="M201.591 7.5188V231.231" stroke="#263238" stroke-miterlimit="10"/>
<path d="M208.486 7.5188V231.231" stroke="#263238" stroke-miterlimit="10"/>
<path d="M215.371 7.5188V231.231" stroke="#263238" stroke-miterlimit="10"/>
<path d="M222.257 7.5188V231.231" stroke="#263238" stroke-miterlimit="10"/>
<path d="M229.142 7.5188V231.231" stroke="#263238" stroke-miterlimit="10"/>
<path d="M159.248 227.333H35.7628V234.568H159.248V227.333Z" stroke="#263238" stroke-miterlimit="10"/>
<path d="M345.917 227.333H235.033V234.568H345.917V227.333Z" stroke="#263238" stroke-miterlimit="10"/>
<path d="M224.674 227.052C224.674 227.052 236.778 228.294 242.913 236.118C242.913 236.118 249.397 227.052 261.039 227.269C263.896 223.701 265.718 219.362 266.292 214.76C266.866 210.157 266.169 205.479 264.281 201.272C262.394 197.065 259.394 193.503 255.632 190.999C251.87 188.496 247.5 187.156 243.032 187.135C238.565 187.114 234.184 188.413 230.399 190.88C226.615 193.347 223.584 196.881 221.66 201.07C219.736 205.259 218.997 209.93 219.531 214.538C220.065 219.146 221.848 223.502 224.674 227.097V227.052Z" fill="url(#paint1_linear_24_1917)"/>
<path opacity="0.5" d="M224.674 227.052C224.674 227.052 236.778 228.294 242.913 236.118C242.913 236.118 249.397 227.052 261.039 227.269C263.896 223.701 265.718 219.362 266.292 214.76C266.866 210.157 266.169 205.479 264.281 201.272C262.394 197.065 259.394 193.503 255.632 190.999C251.87 188.496 247.5 187.156 243.032 187.135C238.565 187.114 234.184 188.413 230.399 190.88C226.615 193.347 223.584 196.881 221.66 201.07C219.736 205.259 218.997 209.93 219.531 214.538C220.065 219.146 221.848 223.502 224.674 227.097V227.052Z" fill="white"/>
<path d="M242.512 188.927L242.111 251.966H244.153L242.512 188.927Z" fill="#263238"/>
<path d="M243.132 233.715C243.132 233.715 247.216 226.072 254.573 223.742C254.573 223.742 246.806 225.646 242.922 232.229L243.132 233.715Z" fill="#263238"/>
<path d="M243.132 212.065C243.132 212.065 247.216 204.422 254.573 202.092C254.573 202.092 246.806 203.996 242.922 210.578L243.132 212.065Z" fill="#263238"/>
<path d="M243.132 222.89C243.132 222.89 247.216 215.247 254.573 212.917C254.573 212.917 246.806 214.821 242.922 221.403L243.132 222.89Z" fill="#263238"/>
<path d="M242.521 217.586C242.521 217.586 238.576 209.943 231.481 207.613C231.481 207.613 238.978 209.526 242.721 216.108L242.521 217.586Z" fill="#263238"/>
<path d="M242.521 228.194C242.521 228.194 238.576 220.551 231.481 218.221C231.481 218.221 238.978 220.134 242.721 226.707L242.521 228.194Z" fill="#263238"/>
<path d="M281.687 222.274C281.687 222.274 296.112 223.751 303.426 233.044C303.426 233.044 311.149 222.283 325.025 222.5C328.414 218.251 330.572 213.088 331.247 207.614C331.922 202.14 331.086 196.579 328.837 191.58C326.588 186.58 323.018 182.347 318.542 179.373C314.067 176.4 308.871 174.808 303.559 174.783C298.247 174.759 293.037 176.303 288.537 179.235C284.036 182.167 280.43 186.367 278.139 191.346C275.847 196.325 274.964 201.878 275.592 207.358C276.22 212.838 278.334 218.02 281.687 222.301V222.274Z" fill="url(#paint2_linear_24_1917)"/>
<path opacity="0.5" d="M281.687 222.274C281.687 222.274 296.112 223.751 303.426 233.044C303.426 233.044 311.149 222.283 325.025 222.5C328.414 218.251 330.572 213.088 331.247 207.614C331.922 202.14 331.086 196.579 328.837 191.58C326.588 186.58 323.018 182.347 318.542 179.373C314.067 176.4 308.871 174.808 303.559 174.783C298.247 174.759 293.037 176.303 288.537 179.235C284.036 182.167 280.43 186.367 278.139 191.346C275.847 196.325 274.964 201.878 275.592 207.358C276.22 212.838 278.334 218.02 281.687 222.301V222.274Z" fill="white"/>
<path d="M302.946 176.842L302.457 251.966H304.9L302.946 176.842Z" fill="#263238"/>
<path d="M303.679 230.216C303.679 230.216 308.549 221.104 317.31 218.321C317.31 218.321 308.06 220.605 303.435 228.439L303.679 230.216Z" fill="#263238"/>
<path d="M303.679 204.413C303.679 204.413 308.549 195.301 317.31 192.527C317.31 192.527 308.06 194.803 303.435 202.645L303.679 204.413Z" fill="#263238"/>
<path d="M303.679 217.314C303.679 217.314 308.549 208.248 317.31 205.419C317.31 205.419 308.06 207.704 303.435 215.546L303.679 217.314Z" fill="#263238"/>
<path d="M302.954 210.986C302.954 210.986 298.259 201.919 289.803 199.1C289.803 199.1 298.731 201.376 303.19 209.218L302.954 210.986Z" fill="#263238"/>
<path d="M302.954 223.634C302.954 223.634 298.259 214.567 289.803 211.748C289.803 211.748 298.731 214.023 303.19 221.866L302.954 223.634Z" fill="#263238"/>
<path d="M339.756 230.95C339.756 230.95 349.966 232.002 355.141 238.575C357.001 236.235 359.337 234.353 361.98 233.063C364.624 231.772 367.51 231.107 370.431 231.113C372.831 228.105 374.36 224.45 374.839 220.574C375.317 216.698 374.726 212.76 373.134 209.219C371.542 205.679 369.014 202.681 365.846 200.575C362.677 198.469 358.998 197.341 355.237 197.324C351.475 197.306 347.786 198.399 344.599 200.475C341.412 202.551 338.859 205.524 337.236 209.05C335.613 212.575 334.987 216.507 335.432 220.387C335.876 224.268 337.373 227.937 339.747 230.968L339.756 230.95Z" fill="url(#paint3_linear_24_1917)"/>
<path opacity="0.5" d="M339.756 230.95C339.756 230.95 349.966 232.002 355.141 238.575C357.001 236.235 359.337 234.353 361.98 233.063C364.624 231.772 367.51 231.107 370.431 231.113C372.831 228.105 374.36 224.45 374.839 220.574C375.317 216.698 374.726 212.76 373.134 209.219C371.542 205.679 369.014 202.681 365.846 200.575C362.677 198.469 358.998 197.341 355.237 197.324C351.475 197.306 347.786 198.399 344.599 200.475C341.412 202.551 338.859 205.524 337.236 209.05C335.613 212.575 334.987 216.507 335.432 220.387C335.876 224.268 337.373 227.937 339.747 230.968L339.756 230.95Z" fill="white"/>
<path d="M354.801 198.792L354.46 251.966H356.18L354.801 198.792Z" fill="#263238"/>
<path d="M355.324 236.571C355.324 236.571 358.763 230.125 364.924 228.158C364.924 228.158 358.379 229.762 355.106 235.32L355.324 236.571Z" fill="#263238"/>
<path d="M355.324 218.303C355.324 218.303 358.763 211.856 364.924 209.889C364.924 209.889 358.379 211.503 355.106 217.051L355.324 218.303Z" fill="#263238"/>
<path d="M355.324 227.441C355.324 227.441 358.763 220.995 364.924 219.019C364.924 219.019 358.379 220.633 355.106 226.181L355.324 227.441Z" fill="#263238"/>
<path d="M354.81 222.963C354.81 222.963 351.485 216.516 345.498 214.549C345.498 214.549 351.816 216.154 354.975 221.711L354.81 222.963Z" fill="#263238"/>
<path d="M354.81 231.911C354.81 231.911 351.485 225.465 345.498 223.498C345.498 223.498 351.816 225.111 354.975 230.66L354.81 231.911Z" fill="#263238"/>
<path d="M13.8934 227.052C13.8934 227.052 25.9976 228.294 32.1326 236.118C32.1326 236.118 38.6167 227.052 50.2584 227.269C53.1155 223.701 54.9374 219.362 55.5115 214.76C56.0856 210.157 55.3882 205.479 53.5007 201.272C51.6133 197.065 48.6135 193.503 44.8512 190.999C41.0889 188.496 36.7192 187.156 32.2516 187.135C27.784 187.114 23.4027 188.413 19.6186 190.88C15.8345 193.347 12.8036 196.881 10.8793 201.07C8.95498 205.259 8.2166 209.93 8.75026 214.538C9.28392 219.146 11.0676 223.502 13.8934 227.097V227.052Z" fill="url(#paint4_linear_24_1917)"/>
<path opacity="0.5" d="M13.8934 227.052C13.8934 227.052 25.9976 228.294 32.1326 236.118C32.1326 236.118 38.6167 227.052 50.2584 227.269C53.1155 223.701 54.9374 219.362 55.5115 214.76C56.0856 210.157 55.3882 205.479 53.5007 201.272C51.6133 197.065 48.6135 193.503 44.8512 190.999C41.0889 188.496 36.7192 187.156 32.2516 187.135C27.784 187.114 23.4027 188.413 19.6186 190.88C15.8345 193.347 12.8036 196.881 10.8793 201.07C8.95498 205.259 8.2166 209.93 8.75026 214.538C9.28392 219.146 11.0676 223.502 13.8934 227.097V227.052Z" fill="white"/>
<path d="M31.7311 188.927L31.3209 251.966H33.363L31.7311 188.927Z" fill="#263238"/>
<path d="M32.3418 233.715C32.3418 233.715 36.4347 226.072 43.7828 223.742C43.7828 223.742 36.0246 225.646 32.1411 232.229L32.3418 233.715Z" fill="#263238"/>
<path d="M32.3418 212.065C32.3418 212.065 36.4347 204.422 43.7828 202.092C43.7828 202.092 36.0246 203.996 32.1411 210.578L32.3418 212.065Z" fill="#263238"/>
<path d="M32.3418 222.89C32.3418 222.89 36.4347 215.247 43.7828 212.917C43.7828 212.917 36.0246 214.821 32.1411 221.403L32.3418 222.89Z" fill="#263238"/>
<path d="M31.7398 217.586C31.7398 217.586 27.7953 209.943 20.7003 207.613C20.7003 207.613 28.188 209.526 31.9406 216.108L31.7398 217.586Z" fill="#263238"/>
<path d="M31.7398 228.194C31.7398 228.194 27.7953 220.551 20.7003 218.221C20.7003 218.221 28.188 220.134 31.9406 226.707L31.7398 228.194Z" fill="#263238"/>
<path d="M70.9062 222.274C70.9062 222.274 85.3318 223.752 92.6449 233.045C92.6449 233.045 100.368 222.283 114.244 222.5C117.632 218.251 119.789 213.088 120.463 207.615C121.136 202.141 120.3 196.581 118.05 191.582C115.801 186.583 112.231 182.351 107.756 179.378C103.281 176.405 98.0853 174.814 92.7737 174.789C87.4622 174.765 82.2531 176.308 77.7531 179.24C73.253 182.171 69.6471 186.371 67.355 191.349C65.0629 196.327 64.179 201.879 64.8062 207.359C65.4333 212.838 67.5457 218.02 70.8975 222.301L70.9062 222.274Z" fill="url(#paint5_linear_24_1917)"/>
<path opacity="0.5" d="M70.9062 222.274C70.9062 222.274 85.3318 223.752 92.6449 233.045C92.6449 233.045 100.368 222.283 114.244 222.5C117.632 218.251 119.789 213.088 120.463 207.615C121.136 202.141 120.3 196.581 118.05 191.582C115.801 186.583 112.231 182.351 107.756 179.378C103.281 176.405 98.0853 174.814 92.7737 174.789C87.4622 174.765 82.2531 176.308 77.7531 179.24C73.253 182.171 69.6471 186.371 67.355 191.349C65.0629 196.327 64.179 201.879 64.8062 207.359C65.4333 212.838 67.5457 218.02 70.8975 222.301L70.9062 222.274Z" fill="white"/>
<path d="M92.1647 176.842L91.676 251.966H94.1108L92.1647 176.842Z" fill="#263238"/>
<path d="M92.8979 230.216C92.8979 230.216 97.7675 221.104 106.529 218.321C106.529 218.321 97.2788 220.605 92.6536 228.439L92.8979 230.216Z" fill="#263238"/>
<path d="M92.8979 204.413C92.8979 204.413 97.7675 195.301 106.529 192.527C106.529 192.527 97.2788 194.803 92.6536 202.645L92.8979 204.413Z" fill="#263238"/>
<path d="M92.8979 217.314C92.8979 217.314 97.7675 208.248 106.529 205.419C106.529 205.419 97.2788 207.704 92.6536 215.546L92.8979 217.314Z" fill="#263238"/>
<path d="M92.1736 210.986C92.1736 210.986 87.4785 201.919 79.0134 199.1C79.0134 199.1 87.9411 201.376 92.4092 209.218L92.1736 210.986Z" fill="#263238"/>
<path d="M92.1736 223.634C92.1736 223.634 87.4785 214.567 79.0134 211.748C79.0134 211.748 87.9411 214.023 92.4092 221.866L92.1736 223.634Z" fill="#263238"/>
<path d="M128.975 230.95C128.975 230.95 139.185 232.002 144.36 238.575C146.22 236.234 148.555 234.351 151.199 233.061C153.843 231.771 156.729 231.105 159.65 231.113C162.051 228.105 163.579 224.45 164.058 220.574C164.536 216.698 163.945 212.76 162.353 209.219C160.761 205.679 158.234 202.681 155.065 200.575C151.896 198.469 148.217 197.341 144.456 197.324C140.694 197.306 137.005 198.399 133.818 200.475C130.632 202.551 128.078 205.524 126.455 209.05C124.832 212.575 124.206 216.507 124.651 220.387C125.095 224.268 126.592 227.937 128.966 230.968L128.975 230.95Z" fill="url(#paint6_linear_24_1917)"/>
<path opacity="0.5" d="M128.975 230.95C128.975 230.95 139.185 232.002 144.36 238.575C146.22 236.234 148.555 234.351 151.199 233.061C153.843 231.771 156.729 231.105 159.65 231.113C162.051 228.105 163.579 224.45 164.058 220.574C164.536 216.698 163.945 212.76 162.353 209.219C160.761 205.679 158.234 202.681 155.065 200.575C151.896 198.469 148.217 197.341 144.456 197.324C140.694 197.306 137.005 198.399 133.818 200.475C130.632 202.551 128.078 205.524 126.455 209.05C124.832 212.575 124.206 216.507 124.651 220.387C125.095 224.268 126.592 227.937 128.966 230.968L128.975 230.95Z" fill="white"/>
<path d="M144.02 198.792L143.671 251.966H145.399L144.02 198.792Z" fill="#263238"/>
<path d="M144.535 236.571C144.535 236.571 147.982 230.125 154.187 228.158C154.187 228.158 147.642 229.762 144.369 235.32L144.535 236.571Z" fill="#263238"/>
<path d="M144.535 218.303C144.535 218.303 147.982 211.856 154.187 209.889C154.187 209.889 147.642 211.503 144.369 217.051L144.535 218.303Z" fill="#263238"/>
<path d="M144.535 227.441C144.535 227.441 147.982 220.995 154.187 219.019C154.187 219.019 147.642 220.633 144.369 226.181L144.535 227.441Z" fill="#263238"/>
<path d="M144.029 222.963C144.029 222.963 140.704 216.516 134.717 214.549C134.717 214.549 141.036 216.154 144.195 221.711L144.029 222.963Z" fill="#263238"/>
<path d="M144.029 231.911C144.029 231.911 140.704 225.465 134.717 223.498C134.717 223.498 141.036 225.111 144.195 230.66L144.029 231.911Z" fill="#263238"/>
<path d="M265.166 251.313C277.726 248.269 285.534 235.224 282.604 222.175C279.674 209.126 267.117 201.015 254.556 204.059C241.996 207.102 234.189 220.148 237.118 233.197C240.048 246.246 252.606 254.357 265.166 251.313Z" fill="#263238" stroke="#263238" stroke-miterlimit="10"/>
<path d="M112.817 244.845C121.937 235.37 121.937 220.008 112.817 210.533C103.697 201.059 88.9102 201.059 79.7902 210.533C70.6702 220.008 70.6702 235.37 79.7902 244.845C88.9102 254.319 103.697 254.319 112.817 244.845Z" fill="#263238" stroke="#263238" stroke-miterlimit="10"/>
<path d="M244.109 181.711C244.109 181.711 237.913 177.685 209.62 168.021C181.328 158.356 163.106 155.128 135.206 155.944C107.306 156.76 69.7019 167.622 62.7291 170.45C55.7563 173.279 52.6495 174.077 54.2029 176.081C55.7563 178.084 64.2737 185.346 63.1131 188.565C61.9524 191.783 42.9801 209.526 41.7932 212.31C40.6064 215.093 45.6767 224.794 46.4447 227.215C47.2127 229.636 51.4888 230.433 54.9709 230.841C58.4529 231.249 306.515 230.841 306.515 230.841C306.515 230.841 310.006 226.417 309.229 220.778C308.452 215.138 307.623 207.704 304.124 202.944C301.296 199.082 298.373 195.011 291.034 194.204C286.382 193.687 245.278 182.119 244.109 181.711Z" fill="url(#paint7_linear_24_1917)"/>
<mask id="mask0_24_1917" style="mask-type:luminance" maskUnits="userSpaceOnUse" x="41" y="155" width="269" height="77">
<path d="M244.109 181.711C244.109 181.711 237.913 177.685 209.62 168.021C181.328 158.356 163.106 155.128 135.206 155.944C107.306 156.76 69.7019 167.622 62.7291 170.45C55.7563 173.279 52.6495 174.077 54.2029 176.081C55.7563 178.084 64.2737 185.346 63.1131 188.565C61.9524 191.783 42.9801 209.526 41.7932 212.31C40.6064 215.093 45.6767 224.794 46.4447 227.215C47.2127 229.636 51.4888 230.433 54.9709 230.841C58.4529 231.249 306.515 230.841 306.515 230.841C306.515 230.841 310.006 226.417 309.229 220.778C308.452 215.138 307.623 207.704 304.124 202.944C301.296 199.082 298.373 195.011 291.034 194.204C286.382 193.687 245.278 182.119 244.109 181.711Z" fill="white"/>
</mask>
<g mask="url(#mask0_24_1917)">
<path d="M244.109 181.711C244.109 181.711 237.913 177.685 209.62 168.021C181.328 158.356 163.106 155.128 135.206 155.944C107.306 156.76 69.7019 167.622 62.7291 170.45C55.7563 173.279 52.6495 174.077 54.2029 176.081C55.7563 178.084 64.2737 185.346 63.1131 188.565C61.9524 191.783 42.9801 209.526 41.7932 212.31C40.6064 215.093 45.6767 224.794 46.4447 227.215C47.2127 229.636 51.4888 230.433 54.9709 230.841C58.4529 231.249 306.515 230.841 306.515 230.841C306.515 230.841 310.006 226.417 309.229 220.778C308.452 215.138 307.623 207.704 304.124 202.944C301.296 199.082 298.373 195.011 291.034 194.204C286.382 193.687 245.278 182.119 244.109 181.711Z" fill="url(#paint8_linear_24_1917)"/>
<mask id="mask1_24_1917" style="mask-type:luminance" maskUnits="userSpaceOnUse" x="41" y="155" width="269" height="77">
<path d="M244.109 181.711C244.109 181.711 237.913 177.685 209.62 168.021C181.328 158.356 163.106 155.128 135.206 155.944C107.306 156.76 69.7019 167.622 62.7291 170.45C55.7563 173.279 52.6495 174.077 54.2029 176.081C55.7563 178.084 64.2737 185.346 63.1131 188.565C61.9524 191.783 42.9801 209.526 41.7932 212.31C40.6064 215.093 45.6767 224.794 46.4447 227.215C47.2127 229.636 51.4888 230.433 54.9709 230.841C58.4529 231.249 306.515 230.841 306.515 230.841C306.515 230.841 310.006 226.417 309.229 220.778C308.452 215.138 307.623 207.704 304.124 202.944C301.296 199.082 298.373 195.011 291.034 194.204C286.382 193.687 245.278 182.119 244.109 181.711Z" fill="white"/>
</mask>
<g mask="url(#mask1_24_1917)">
<path opacity="0.15" d="M244.109 181.711C244.109 181.711 237.913 177.685 209.62 168.021C181.328 158.356 163.106 155.128 135.206 155.944C107.306 156.76 69.7019 167.622 62.7291 170.45C55.7563 173.279 52.6495 174.077 54.2029 176.081C55.7563 178.084 64.2737 185.346 63.1131 188.565C61.9524 191.783 42.9801 209.526 41.7932 212.31C40.6064 215.093 45.6767 224.794 46.4447 227.215C47.2127 229.636 51.4888 230.433 54.9709 230.841C58.4529 231.249 306.515 230.841 306.515 230.841C306.515 230.841 310.006 226.417 309.229 220.778C308.452 215.138 307.623 207.704 304.124 202.944C301.296 199.082 298.373 195.011 291.034 194.204C286.382 193.687 245.278 182.119 244.109 181.711Z" fill="black"/>
</g>
</g>
<path d="M244.109 181.711C244.109 181.711 237.913 177.685 209.62 168.021C181.328 158.356 163.106 155.128 135.206 155.944C107.306 156.76 69.7019 167.622 62.7291 170.45C55.7563 173.279 52.6495 174.077 54.2029 176.081C55.7563 178.084 64.2737 185.346 63.1131 188.565C61.9524 191.783 42.9801 209.526 41.7932 212.31C40.6064 215.093 45.6767 224.794 46.4447 227.215C47.2127 229.636 51.4888 230.433 54.9709 230.841C58.4529 231.249 306.515 230.841 306.515 230.841C306.515 230.841 310.006 226.417 309.229 220.778C308.452 215.138 307.623 207.704 304.124 202.944C301.296 199.082 298.373 195.011 291.034 194.204C286.382 193.687 245.278 182.119 244.109 181.711Z" stroke="#263238" stroke-miterlimit="10"/>
<path d="M306.515 209.898H291.784V213.924H306.515V209.898Z" fill="#263238" stroke="#263238" stroke-miterlimit="10"/>
<path d="M284.715 202.935H287.063C288.564 202.932 290.032 203.397 291.277 204.27C292.521 205.142 293.485 206.383 294.044 207.831L296.409 213.924H288.729L284.715 202.935Z" fill="white" stroke="#263238" stroke-miterlimit="10"/>
<path d="M306.332 207.051C306.245 207.305 306.166 207.559 306.096 207.831L304.517 213.924H308.199C307.792 211.575 307.167 209.274 306.332 207.051Z" fill="white" stroke="#263238" stroke-miterlimit="10"/>
<path d="M244.109 181.711C244.109 181.711 237.913 177.685 209.62 168.021C203.154 165.818 197.228 163.95 191.582 162.381H171.632L167.373 163.596L224.735 181.729L244.109 181.711Z" fill="#263238" stroke="#263238" stroke-miterlimit="10"/>
<path d="M35.2131 175.256V202.455C35.2131 202.455 51.1485 188.855 49.1762 184.984C47.2039 181.112 35.2131 175.256 35.2131 175.256Z" fill="#8F8F8F" stroke="#263238" stroke-miterlimit="10"/>
<path d="M224.735 181.711C224.735 181.711 218.53 177.685 190.238 168.021C161.945 158.356 143.732 155.128 115.823 155.944C87.9148 156.76 50.3194 167.622 43.3902 170.45C36.461 173.279 33.3106 174.077 34.864 176.081C36.4174 178.084 44.9436 185.346 43.7742 188.565C42.6048 191.783 23.5801 209.526 22.4195 212.31C21.2588 215.093 26.2942 224.794 27.0709 227.215C27.8476 229.636 32.1063 230.433 35.5971 230.841C39.0878 231.249 287.133 230.841 287.133 230.841C287.133 230.841 290.623 226.417 289.847 220.778C289.07 215.138 288.206 207.713 284.715 202.935C281.888 199.073 278.955 195.002 271.625 194.195C267.008 193.687 225.896 182.119 224.735 181.711Z" fill="url(#paint9_linear_24_1917)"/>
<mask id="mask2_24_1917" style="mask-type:luminance" maskUnits="userSpaceOnUse" x="22" y="155" width="268" height="77">
<path d="M224.735 181.711C224.735 181.711 218.53 177.685 190.238 168.021C161.945 158.356 143.732 155.128 115.823 155.944C87.9148 156.76 50.3194 167.622 43.3902 170.45C36.461 173.279 33.3106 174.077 34.864 176.081C36.4174 178.084 44.9436 185.346 43.7742 188.565C42.6048 191.783 23.5801 209.526 22.4195 212.31C21.2588 215.093 26.2942 224.794 27.0709 227.215C27.8476 229.636 32.1063 230.433 35.5971 230.841C39.0878 231.249 287.133 230.841 287.133 230.841C287.133 230.841 290.623 226.417 289.847 220.778C289.07 215.138 288.206 207.713 284.715 202.935C281.888 199.073 278.955 195.002 271.625 194.195C267.008 193.687 225.896 182.119 224.735 181.711Z" fill="white"/>
</mask>
<g mask="url(#mask2_24_1917)">
<path opacity="0.15" d="M284.715 202.935C281.888 199.073 278.955 195.002 271.625 194.195C270.403 194.059 266.624 193.153 261.711 191.883C238.288 191.638 225.241 201.475 190.246 204.812C144.675 209.146 113.144 197.314 75.1648 192.572C59.3255 190.605 46.5406 193.026 37.002 196.507C31.0241 202.781 23.1437 210.533 22.4107 212.31C21.25 215.129 26.2854 224.794 27.0621 227.215C27.8388 229.636 32.0975 230.433 35.5883 230.841C39.079 231.249 287.124 230.841 287.124 230.841C287.124 230.841 290.615 226.417 289.838 220.778C289.061 215.138 288.206 207.713 284.715 202.935Z" fill="black"/>
</g>
<path d="M224.735 181.711C224.735 181.711 218.53 177.685 190.238 168.021C161.945 158.356 143.732 155.128 115.823 155.944C87.9148 156.76 50.3194 167.622 43.3902 170.45C36.461 173.279 33.3106 174.077 34.864 176.081C36.4174 178.084 44.9436 185.346 43.7742 188.565C42.6048 191.783 23.5801 209.526 22.4195 212.31C21.2588 215.093 26.2942 224.794 27.0709 227.215C27.8476 229.636 32.1063 230.433 35.5971 230.841C39.0878 231.249 287.133 230.841 287.133 230.841C287.133 230.841 290.623 226.417 289.847 220.778C289.07 215.138 288.206 207.713 284.715 202.935C281.888 199.073 278.955 195.002 271.625 194.195C267.008 193.687 225.896 182.119 224.735 181.711Z" stroke="#263238" stroke-miterlimit="10"/>
<path d="M78.1582 166.86L93.6659 183.878H207.657V180.015C207.657 180.015 184.295 170.487 159.659 165.509C135.023 160.532 128.87 160.976 117.77 161.194C106.669 161.411 78.1582 166.86 78.1582 166.86Z" fill="#8F8F8F"/>
<mask id="mask3_24_1917" style="mask-type:luminance" maskUnits="userSpaceOnUse" x="78" y="161" width="130" height="23">
<path d="M78.1582 166.86L93.6659 183.878H207.657V180.015C207.657 180.015 184.295 170.487 159.659 165.509C135.023 160.532 128.87 160.976 117.77 161.194C106.669 161.411 78.1582 166.86 78.1582 166.86Z" fill="white"/>
</mask>
<g mask="url(#mask3_24_1917)">
<path d="M133.74 176.434C119.23 172.992 104.05 174.294 90.2799 180.161L93.6659 183.878H207.657V180.016C207.657 180.016 203.878 178.474 197.752 176.307C184.932 181.421 159.502 182.327 133.74 176.434Z" fill="#263238" stroke="#263238" stroke-miterlimit="10"/>
</g>
<path d="M78.1582 166.86L93.6659 183.878H207.657V180.015C207.657 180.015 184.295 170.487 159.659 165.509C135.023 160.532 128.87 160.976 117.77 161.194C106.669 161.411 78.1582 166.86 78.1582 166.86Z" stroke="#263238" stroke-width="4" stroke-miterlimit="10"/>
<path d="M129.699 186.144V223.126" stroke="#263238" stroke-miterlimit="10"/>
<path d="M75.2023 251.338C87.7658 248.308 95.5861 235.271 92.6694 222.219C89.7527 209.167 77.2035 201.042 64.6401 204.072C52.0766 207.102 44.2563 220.14 47.173 233.192C50.0896 246.244 62.6388 254.369 75.2023 251.338Z" fill="#263238" stroke="#263238" stroke-miterlimit="10"/>
<path d="M69.9462 210.179C66.6122 210.179 63.3531 211.207 60.5813 213.132C57.8095 215.056 55.6496 217.792 54.3749 220.993C53.1002 224.194 52.768 227.715 53.4203 231.112C54.0727 234.509 55.6802 237.628 58.0396 240.075C60.399 242.523 63.4041 244.188 66.6747 244.86C69.9453 245.533 73.3345 245.182 76.4132 243.853C79.492 242.524 82.1221 240.276 83.9706 237.393C85.8191 234.51 86.8031 231.123 86.7979 227.659C86.7886 223.021 85.0094 218.577 81.8504 215.3C78.6913 212.023 74.4103 210.182 69.9462 210.179ZM81.2912 224.178L71.4734 226.091L74.2573 216.254C75.9272 216.938 77.4261 218.006 78.6413 219.379C79.8566 220.751 80.7566 222.392 81.2738 224.178H81.2912ZM70.8189 226.807V228.566H69.1346V226.807H70.8189ZM66.6038 215.927L68.4452 226.127L58.9678 223.226C59.6176 221.494 60.6368 219.937 61.9488 218.673C63.2608 217.409 64.8314 216.47 66.5427 215.927H66.6038ZM58.6536 231.195L68.4714 229.282L65.6701 239.119C63.9923 238.444 62.4854 237.378 61.2648 236.005C60.0442 234.632 59.142 232.986 58.6274 231.195H58.6536ZM73.3497 239.445L71.5084 229.255L80.9596 232.192C80.298 233.923 79.2671 235.475 77.9443 236.731C76.6216 237.987 75.0417 238.916 73.3235 239.445H73.3497Z" fill="white" stroke="#263238" stroke-miterlimit="10"/>
<path d="M75.1737 227.659C75.1737 226.583 74.8666 225.531 74.2912 224.637C73.7159 223.742 72.8981 223.045 71.9413 222.633C70.9846 222.222 69.9318 222.114 68.916 222.324C67.9003 222.534 66.9673 223.052 66.2351 223.813C65.5028 224.573 65.0041 225.543 64.802 226.598C64.6 227.653 64.7037 228.747 65.1 229.741C65.4963 230.735 66.1674 231.584 67.0285 232.182C67.8896 232.78 68.9019 233.099 69.9376 233.099C71.3263 233.099 72.6581 232.526 73.6401 231.506C74.622 230.485 75.1737 229.102 75.1737 227.659Z" fill="white" stroke="#263238" stroke-miterlimit="10"/>
<path d="M250.798 244.844C259.918 235.369 259.918 220.007 250.798 210.533C241.678 201.058 226.892 201.058 217.772 210.533C208.652 220.007 208.652 235.369 217.772 244.844C226.892 254.319 241.678 254.319 250.798 244.844Z" fill="#263238" stroke="#263238" stroke-miterlimit="10"/>
<path d="M234.283 210.179C230.948 210.179 227.689 211.207 224.918 213.132C222.146 215.056 219.986 217.792 218.711 220.993C217.436 224.194 217.104 227.715 217.757 231.112C218.409 234.509 220.017 237.628 222.376 240.075C224.735 242.523 227.74 244.188 231.011 244.86C234.282 245.533 237.671 245.182 240.75 243.853C243.828 242.524 246.458 240.276 248.307 237.393C250.155 234.51 251.139 231.123 251.134 227.659C251.125 223.021 249.346 218.577 246.187 215.3C243.028 212.023 238.747 210.182 234.283 210.179ZM245.628 224.178L235.818 226.091L238.602 216.254C240.27 216.938 241.766 218.007 242.979 219.38C244.191 220.752 245.088 222.393 245.601 224.178H245.628ZM235.155 226.807V228.566H233.462V226.807H235.155ZM230.931 215.927L232.773 226.127L223.304 223.226C223.956 221.49 224.978 219.931 226.295 218.667C227.612 217.402 229.189 216.465 230.905 215.927H230.931ZM222.99 231.195L232.808 229.282L230.015 239.119C228.336 238.444 226.828 237.379 225.606 236.006C224.383 234.632 223.48 232.987 222.964 231.195H222.99ZM237.686 239.445L235.845 229.255L245.287 232.192C244.628 233.923 243.598 235.474 242.277 236.731C240.956 237.987 239.377 238.916 237.66 239.445H237.686Z" fill="white" stroke="#263238" stroke-miterlimit="10"/>
<path d="M239.51 227.659C239.51 226.583 239.203 225.531 238.627 224.637C238.052 223.742 237.234 223.045 236.278 222.633C235.321 222.222 234.268 222.114 233.252 222.324C232.237 222.534 231.304 223.052 230.571 223.813C229.839 224.573 229.34 225.543 229.138 226.598C228.936 227.653 229.04 228.747 229.436 229.741C229.832 230.735 230.504 231.584 231.365 232.182C232.226 232.78 233.238 233.099 234.274 233.099C235.662 233.099 236.994 232.526 237.976 231.506C238.958 230.485 239.51 229.102 239.51 227.659Z" fill="white" stroke="#263238" stroke-miterlimit="10"/>
<path d="M284.715 202.935C284.715 202.935 267.331 202.029 266.554 202.935C265.778 203.842 272.367 211.095 274.697 212.718C276.538 213.996 285.213 213.751 288.721 213.624C288.014 209.726 286.871 205.836 284.715 202.935Z" fill="white" stroke="#263238" stroke-miterlimit="10"/>
<path d="M132.553 161.311C131.41 161.23 130.336 161.175 129.289 161.139L126.366 183.805H134.115L132.553 161.311Z" fill="#263238" stroke="#263238" stroke-miterlimit="10"/>
<path d="M161.404 244.794C160.017 245.721 158.558 246.525 157.041 247.197C155.173 247.94 153.934 248.394 154.292 249.6C154.649 250.805 156.683 251.812 159.266 252.365C161.849 252.918 166.457 251.721 167.705 251.349C168.953 250.978 169.127 248.856 168.237 247.659C167.347 246.463 162.914 244.151 161.404 244.794Z" fill="#263238" stroke="#263238" stroke-linecap="round" stroke-linejoin="round"/>
<path d="M162.207 251.721C160.069 251.721 156.517 250.887 156.517 250.062C156.517 249.237 157.39 248.584 156.342 248.303C155.295 248.022 154.597 249.536 154.422 249.89C154.998 250.96 156.91 251.857 159.275 252.365C161.893 252.918 166.466 251.721 167.714 251.349C167.938 251.27 168.14 251.136 168.302 250.957C168.465 250.779 168.583 250.562 168.647 250.325C166.582 251.13 164.41 251.601 162.207 251.721Z" fill="white" stroke="#263238" stroke-linecap="round" stroke-linejoin="round"/>
<path d="M172.33 185.537L172.862 187.35C172.531 187.627 172.263 187.978 172.079 188.376C171.895 188.775 171.799 189.211 171.798 189.653C171.995 190.671 172.529 191.585 173.307 192.237" stroke="#263238" stroke-linecap="round" stroke-linejoin="round"/>
<path d="M166.902 181.937C166.362 183.443 165.919 184.985 165.576 186.552V189.045C165.576 189.508 163.83 199.29 163.437 205.292C163.045 211.294 162.818 218.302 162.373 219.88C161.928 221.458 162.46 222.274 162.547 224.495C162.635 226.716 162.731 237.877 162.731 237.877C162.731 237.877 162.286 240.832 162.198 241.567C162.111 242.301 161.221 242.582 160.95 243.045C160.659 243.793 160.423 244.562 160.243 245.347C161.625 245.737 162.882 246.504 163.883 247.569C165.13 249.137 168.499 251.077 168.944 250.978C169.389 250.878 169.66 249.6 170.367 247.841C171.073 246.082 170.995 245.166 171.344 244.432C171.693 243.697 172.217 242.491 173.037 236.952C173.857 231.412 174.547 223.198 174.992 222.092C175.437 220.986 177.741 216.834 177.741 216.834C179.748 212.814 181.472 208.647 182.898 204.367C184.201 200.398 185.182 196.322 185.831 192.182C186.246 189.337 186.511 186.471 186.625 183.596V182.69C186.625 182.69 183.344 183.977 177.479 183.333C171.615 182.69 166.902 181.937 166.902 181.937Z" fill="white" stroke="#263238" stroke-linecap="round" stroke-linejoin="round"/>
<path d="M179.172 187.296C179.172 187.296 175.175 189.508 174.556 190.614C173.936 191.72 173.133 196.435 171.353 202.246C169.572 208.058 167.975 212.491 166.466 217.387C165.509 220.19 164.885 223.103 164.607 226.063C164.066 229.69 162.861 239.264 162.861 239.264" stroke="#263238" stroke-linecap="round" stroke-linejoin="round"/>
<path d="M168.647 249.319C168.647 249.319 170.602 248.584 170.602 244.432C170.602 240.279 169.887 237.324 170.602 233.353C171.318 229.382 173.089 222.917 174.154 220.986C175.219 219.055 176.467 216.553 176.467 216.553" stroke="#263238" stroke-linecap="round" stroke-linejoin="round"/>
<path d="M175.446 215.165C175.446 215.165 178.552 217.387 179.172 216.553C180.13 214.784 180.933 212.93 181.572 211.013C182.375 208.892 182.724 207.876 182.724 207.876C182.724 207.876 183.597 207.785 183.701 206.969C183.806 206.153 183.972 204.567 183.972 204.567C183.015 204.537 182.062 204.416 181.127 204.204C179.443 203.832 178.814 203.923 178.465 204.757C178.185 205.321 177.946 205.906 177.75 206.507C177.217 207.985 175.132 212.971 175.088 213.706C175.044 214.44 174.913 214.612 175.446 215.165Z" fill="white" stroke="#263238" stroke-linecap="round" stroke-linejoin="round"/>
<path d="M182.724 207.876C181.503 207.803 180.287 207.648 179.085 207.414C178.107 207.142 178.64 205.845 178.64 205.845" fill="url(#paint10_linear_24_1917)"/>
<path d="M182.724 207.876C181.503 207.803 180.287 207.648 179.085 207.414C178.107 207.142 178.64 205.845 178.64 205.845" stroke="#263238" stroke-linecap="round" stroke-linejoin="round"/>
<path d="M181.485 204.186C181.485 204.186 183.797 196.434 184.103 194.857L184.46 193.288" stroke="#263238" stroke-linecap="round" stroke-linejoin="round"/>
<path d="M182.192 185.165C182.192 185.165 181.572 188.402 182.192 190.152C182.905 191.668 183.977 192.972 185.307 193.941" stroke="#263238" stroke-linecap="round" stroke-linejoin="round"/>
<path d="M169.311 186.552C169.311 186.552 173.936 187.94 176.685 186.924" stroke="#263238" stroke-linecap="round" stroke-linejoin="round"/>
<path d="M177.75 150.278C177.75 150.278 171.711 151.846 169.895 152.218C168.08 152.59 167.146 152.59 166.876 153.415C164.936 157.186 162.675 160.769 160.121 164.122C158.079 166.434 157.905 168.655 158.524 169.843C159.144 171.031 159.859 171.602 162.521 170.858C164.236 170.319 165.756 169.258 166.885 167.812C166.885 167.812 167.513 174.739 166.623 177.504C165.733 180.269 165.375 182.49 165.994 182.944C168.691 184.487 171.713 185.312 174.791 185.346C179.678 185.528 185.263 185.065 186.136 184.141C186.438 183.888 186.675 183.563 186.827 183.193C186.979 182.823 187.042 182.42 187.009 182.019C187.009 181.375 186.66 177.042 187.724 173.624C188.789 170.206 191.809 161.438 191.896 158.111C191.983 154.784 190.744 154.33 188.344 153.315C185.944 152.299 182.122 150.55 181.24 150.359C180.08 150.253 178.914 150.226 177.75 150.278Z" fill="#263238" stroke="#263238" stroke-linecap="round" stroke-linejoin="round"/>
<path d="M176.502 148.619C175.773 149.105 175.089 149.66 174.459 150.278C174.363 150.559 171.257 155.717 171.614 155.717C171.972 155.717 175.882 153.687 175.882 153.687C175.882 153.687 177.828 150.64 177.627 149.434C177.62 149.297 177.582 149.164 177.518 149.044C177.454 148.924 177.364 148.821 177.255 148.742C177.147 148.664 177.023 148.612 176.892 148.59C176.762 148.569 176.628 148.578 176.502 148.619Z" fill="white" stroke="#263238" stroke-linecap="round" stroke-linejoin="round"/>
<path d="M175.751 147.594C175.844 149.636 175.694 151.682 175.306 153.687C174.686 156.18 174.241 157.839 175.131 158.12C176.022 158.401 178.954 153.868 179.748 152.581C180.217 151.84 180.576 151.03 180.813 150.178L181.441 142.979C181.441 142.979 177.88 146.968 175.751 147.594Z" fill="white" stroke="#263238" stroke-linecap="round" stroke-linejoin="round"/>
<path d="M172.557 130.422C172.557 130.422 171.684 138.274 171.684 141.229C171.684 144.185 173.552 147.966 174.433 148.328C175.315 148.691 177.549 149.072 178.439 148.428C179.329 147.784 181.808 143.813 181.808 143.813C182.648 141.038 183.273 138.197 183.675 135.318C183.946 132.181 183.143 130.703 180.385 129.778C177.627 128.854 173.971 128.836 172.557 130.422Z" fill="white" stroke="#263238" stroke-linecap="round" stroke-linejoin="round"/>
<path d="M174.686 137.168C174.686 137.168 173.884 141.701 174.241 141.782C174.771 141.849 175.305 141.879 175.838 141.873" stroke="#263238" stroke-linecap="round" stroke-linejoin="round"/>
<path d="M174.599 143.442C174.599 143.442 176.999 143.995 178.238 142.798" stroke="#263238" stroke-linecap="round" stroke-linejoin="round"/>
<path d="M177.968 137.25C177.968 137.631 177.75 137.921 177.549 137.903C177.348 137.885 177.226 137.549 177.261 137.177C177.296 136.805 177.488 136.497 177.688 136.524C177.889 136.551 178.011 136.869 177.968 137.25Z" fill="#263238"/>
<path d="M174.241 136.878C174.241 137.259 174.014 137.549 173.822 137.531C173.63 137.513 173.5 137.186 173.534 136.805C173.569 136.424 173.761 136.134 173.953 136.152C174.145 136.17 174.276 136.497 174.241 136.878Z" fill="#263238"/>
<path d="M172.557 135.5C172.68 135.331 172.837 135.192 173.018 135.094C173.198 134.995 173.397 134.94 173.601 134.931C173.805 134.922 174.008 134.961 174.195 135.043C174.383 135.126 174.551 135.251 174.686 135.409" stroke="#263238" stroke-linecap="round" stroke-linejoin="round"/>
<path d="M176.371 135.318C176.371 135.318 178.064 133.93 178.989 135.409" stroke="#263238" stroke-linecap="round" stroke-linejoin="round"/>
<path d="M171.135 129.135C171.129 129.21 171.129 129.286 171.135 129.361C171.273 129.832 171.522 130.26 171.859 130.606C172.195 130.952 172.609 131.207 173.063 131.347C175.018 132.181 179.635 131.166 181.232 131.719C182.829 132.272 182.104 133.84 181.144 134.393C180.184 134.946 179.992 135.227 180.438 135.871C180.883 136.515 181.947 137.168 181.589 137.902C181.232 138.636 181.057 139.38 181.677 139.47C182.296 139.561 182.741 139.561 183.012 139.198C183.282 138.836 185.054 134.856 185.054 132.553C185.054 130.25 183.989 129.225 181.502 128.21C179.015 127.195 173.857 126.551 172.348 127.476C172.031 127.629 171.755 127.86 171.543 128.149C171.332 128.438 171.192 128.777 171.135 129.135Z" fill="#263238" stroke="#263238" stroke-linecap="round" stroke-linejoin="round"/>
<path d="M181.441 142.771C181.667 143.003 181.963 143.15 182.279 143.188C182.596 143.226 182.915 143.152 183.186 142.979C184.164 142.335 184.609 140.023 183.989 138.827C183.37 137.63 182.122 139.933 182.122 139.933" fill="white"/>
<path d="M181.441 142.771C181.667 143.003 181.963 143.15 182.279 143.188C182.596 143.226 182.915 143.152 183.186 142.979C184.164 142.335 184.609 140.023 183.989 138.827C183.37 137.63 182.122 139.933 182.122 139.933" stroke="#263238" stroke-linecap="round" stroke-linejoin="round"/>
<path d="M177.75 150.278C177.75 150.278 177.575 158.492 178.107 157.531C178.64 156.57 183.082 150.522 183.082 150.522L182.017 147.286L177.75 150.278Z" fill="white" stroke="#263238" stroke-linecap="round" stroke-linejoin="round"/>
<path d="M185.569 159.326L182.549 169.108L188.056 176.361C188.056 176.361 188.327 176.915 188.772 176.271C189.217 175.627 189.566 175.627 190.281 172.118C190.997 168.61 192.027 160.115 191.966 158.084C191.905 156.053 191.521 155.037 190.011 154.765" fill="#263238"/>
<path d="M185.569 159.326L182.549 169.108L188.056 176.361C188.056 176.361 188.327 176.915 188.772 176.271C189.217 175.627 189.566 175.627 190.281 172.118C190.997 168.61 192.027 160.115 191.966 158.084C191.905 156.053 191.521 155.037 190.011 154.765" stroke="#263238" stroke-linecap="round" stroke-linejoin="round"/>
<path d="M168.691 170.677C168.691 170.677 182.462 176.117 184.33 176.217C186.197 176.316 186.634 175.02 185.839 172.59C185.045 170.16 182.637 168.8 180.603 168.157C178.263 167.589 175.825 167.62 173.5 168.247C171.44 168.827 168.691 169.943 168.691 170.677Z" fill="white" stroke="#263238" stroke-linecap="round" stroke-linejoin="round"/>
<path d="M180.149 168.093C180.149 168.093 183.439 175.473 183.64 176.126C183.841 176.779 187.201 177.232 188.265 177.141C189.33 177.051 188.885 175.382 187.82 172.989C186.756 170.595 185.063 168.456 183.823 168.093C182.606 167.891 181.366 167.891 180.149 168.093Z" fill="white" stroke="#263238" stroke-linecap="round" stroke-linejoin="round"/>
<path d="M161.762 165.509C160.611 165.605 159.476 165.852 158.385 166.243C157.137 166.796 156.875 170.677 157.512 172.064C158.149 173.451 160.086 173.442 161.421 173.351C161.799 173.338 162.168 173.241 162.506 173.066C162.843 172.89 163.14 172.642 163.376 172.336L164.354 165.509H161.762Z" fill="#263238" stroke="#263238" stroke-linecap="round" stroke-linejoin="round"/>
<path d="M164.336 165.509C164.336 165.509 174.372 165.509 176.859 165.418C179.347 165.328 179.975 165.971 180.507 166.896C181.04 167.821 181.214 168.184 181.214 168.184C178.065 168.499 174.964 169.211 171.981 170.305C167.888 171.973 164.336 173.442 163.088 173.442C161.84 173.442 161.343 170.124 161.849 167.812C161.953 167.193 162.255 166.628 162.706 166.21C163.158 165.792 163.732 165.545 164.336 165.509Z" fill="white" stroke="#263238" stroke-linecap="round" stroke-linejoin="round"/>
<path d="M161.491 164.865C161.491 164.865 165.759 164.766 165.671 165.6C165.584 166.434 164.799 172.708 164.511 173.261C164.223 173.814 161.675 174.095 160.427 174.004C159.179 173.914 159.624 169.752 160.427 167.812C160.843 166.855 161.198 165.87 161.491 164.865Z" fill="white" stroke="#263238" stroke-linecap="round" stroke-linejoin="round"/>
<path d="M174.198 185.954C174.198 185.954 174.913 187.06 174.643 187.341C174.372 187.622 173.046 188.909 173.133 189.734C173.175 190.214 173.361 190.668 173.665 191.031" stroke="#263238" stroke-linecap="round" stroke-linejoin="round"/>
<path d="M12.3137 251.966H369.139" stroke="#263238" stroke-linecap="round" stroke-linejoin="round"/>
<defs>
<linearGradient id="paint0_linear_24_1917" x1="170.567" y1="4.04468" x2="170.567" y2="250.274" gradientUnits="userSpaceOnUse">
<stop stop-color="#FFBD76"/>
<stop offset="1" stop-color="#FC931E"/>
</linearGradient>
<linearGradient id="paint1_linear_24_1917" x1="242.925" y1="187.135" x2="242.925" y2="236.118" gradientUnits="userSpaceOnUse">
<stop stop-color="#FFBD76"/>
<stop offset="1" stop-color="#FC931E"/>
</linearGradient>
<linearGradient id="paint2_linear_24_1917" x1="303.435" y1="174.783" x2="303.435" y2="233.044" gradientUnits="userSpaceOnUse">
<stop stop-color="#FFBD76"/>
<stop offset="1" stop-color="#FC931E"/>
</linearGradient>
<linearGradient id="paint3_linear_24_1917" x1="355.146" y1="197.323" x2="355.146" y2="238.575" gradientUnits="userSpaceOnUse">
<stop stop-color="#FFBD76"/>
<stop offset="1" stop-color="#FC931E"/>
</linearGradient>
<linearGradient id="paint4_linear_24_1917" x1="32.1442" y1="187.135" x2="32.1442" y2="236.118" gradientUnits="userSpaceOnUse">
<stop stop-color="#FFBD76"/>
<stop offset="1" stop-color="#FC931E"/>
</linearGradient>
<linearGradient id="paint5_linear_24_1917" x1="92.6496" y1="174.789" x2="92.6496" y2="233.045" gradientUnits="userSpaceOnUse">
<stop stop-color="#FFBD76"/>
<stop offset="1" stop-color="#FC931E"/>
</linearGradient>
<linearGradient id="paint6_linear_24_1917" x1="144.365" y1="197.323" x2="144.365" y2="238.575" gradientUnits="userSpaceOnUse">
<stop stop-color="#FFBD76"/>
<stop offset="1" stop-color="#FC931E"/>
</linearGradient>
<linearGradient id="paint7_linear_24_1917" x1="175.478" y1="155.823" x2="175.478" y2="231.023" gradientUnits="userSpaceOnUse">
<stop stop-color="#FFBD76"/>
<stop offset="1" stop-color="#FC931E"/>
</linearGradient>
<linearGradient id="paint8_linear_24_1917" x1="175.478" y1="155.823" x2="175.478" y2="231.023" gradientUnits="userSpaceOnUse">
<stop stop-color="#FFBD76"/>
<stop offset="1" stop-color="#FC931E"/>
</linearGradient>
<linearGradient id="paint9_linear_24_1917" x1="156.103" y1="155.823" x2="156.103" y2="231.023" gradientUnits="userSpaceOnUse">
<stop stop-color="#FFBD76"/>
<stop offset="1" stop-color="#FC931E"/>
</linearGradient>
<linearGradient id="paint10_linear_24_1917" x1="180.609" y1="205.845" x2="180.609" y2="207.876" gradientUnits="userSpaceOnUse">
<stop stop-color="#FFBD76"/>
<stop offset="1" stop-color="#FC931E"/>
</linearGradient>
</defs>
</svg>
