<svg width="26" height="26" viewBox="0 0 26 26" fill="none" xmlns="http://www.w3.org/2000/svg">
<path fill-rule="evenodd" clip-rule="evenodd" d="M5.15 2H8.3C10.0397 2 11.45 3.4103 11.45 5.15V8.3C11.45 10.0397 10.0397 11.45 8.3 11.45H5.15C3.4103 11.45 2 10.0397 2 8.3V5.15C2 3.4103 3.4103 2 5.15 2ZM8.3 9.34997C8.8799 9.34997 9.35 8.87987 9.35 8.29997V5.14997C9.35 4.57007 8.8799 4.09997 8.3 4.09997H5.15C4.5701 4.09997 4.1 4.57007 4.1 5.14997V8.29997C4.1 8.87987 4.5701 9.34997 5.15 9.34997H8.3ZM8.3 13.5501H5.15C3.4103 13.5501 2 14.9604 2 16.7001V19.8501C2 21.5898 3.4103 23.0001 5.15 23.0001H8.3C10.0397 23.0001 11.45 21.5898 11.45 19.8501V16.7001C11.45 14.9604 10.0397 13.5501 8.3 13.5501ZM8.3 20.9C8.8799 20.9 9.35 20.4299 9.35 19.85V16.7C9.35 16.1201 8.8799 15.65 8.3 15.65H5.15C4.5701 15.65 4.1 16.1201 4.1 16.7V19.85C4.1 20.4299 4.5701 20.9 5.15 20.9H8.3ZM19.85 13.5501H16.7C14.9603 13.5501 13.55 14.9604 13.55 16.7001V19.8501C13.55 21.5898 14.9603 23.0001 16.7 23.0001H19.85C21.5897 23.0001 23 21.5898 23 19.8501V16.7001C23 14.9604 21.5897 13.5501 19.85 13.5501ZM19.85 20.9C20.4299 20.9 20.9 20.4299 20.9 19.85V16.7C20.9 16.1201 20.4299 15.65 19.85 15.65H16.7C16.1201 15.65 15.65 16.1201 15.65 16.7V19.85C15.65 20.4299 16.1201 20.9 16.7 20.9H19.85ZM19.85 2H16.7C14.9603 2 13.55 3.4103 13.55 5.15V8.3C13.55 10.0397 14.9603 11.45 16.7 11.45H19.85C21.5897 11.45 23 10.0397 23 8.3V5.15C23 3.4103 21.5897 2 19.85 2ZM19.85 9.34997C20.4299 9.34997 20.9 8.87987 20.9 8.29997V5.14997C20.9 4.57007 20.4299 4.09997 19.85 4.09997H16.7C16.1201 4.09997 15.65 4.57007 15.65 5.14997V8.29997C15.65 8.87987 16.1201 9.34997 16.7 9.34997H19.85Z" fill="white"/>
</svg>
