<svg width="18" height="18" viewBox="0 0 18 18" fill="none" xmlns="http://www.w3.org/2000/svg">
<path d="M9 2.25H3.75C3.35218 2.25 2.97064 2.40804 2.68934 2.68934C2.40804 2.97064 2.25 3.35218 2.25 3.75V14.25C2.25 14.6478 2.40804 15.0294 2.68934 15.3107C2.97064 15.592 3.35218 15.75 3.75 15.75H14.25C14.6478 15.75 15.0294 15.592 15.3107 15.3107C15.592 15.0294 15.75 14.6478 15.75 14.25V9" stroke="url(#paint0_linear_30_1462)" stroke-linecap="round" stroke-linejoin="round"/>
<path d="M13.7813 1.9688C14.0796 1.67043 14.4843 1.50281 14.9063 1.50281C15.3282 1.50281 15.7329 1.67043 16.0313 1.9688C16.3296 2.26717 16.4973 2.67184 16.4973 3.0938C16.4973 3.51575 16.3296 3.92043 16.0313 4.2188L9.27151 10.9793C9.09342 11.1572 8.87341 11.2875 8.63176 11.358L6.47701 11.988C6.41247 12.0069 6.34406 12.008 6.27894 11.9913C6.21382 11.9746 6.15438 11.9408 6.10684 11.8932C6.05931 11.8457 6.02543 11.7862 6.00874 11.7211C5.99206 11.656 5.99319 11.5876 6.01201 11.523L6.64201 9.3683C6.7129 9.12684 6.84341 8.90709 7.02151 8.7293L13.7813 1.9688Z" stroke="url(#paint1_linear_30_1462)" stroke-linecap="round" stroke-linejoin="round"/>
<defs>
<linearGradient id="paint0_linear_30_1462" x1="9" y1="2.25" x2="9" y2="15.75" gradientUnits="userSpaceOnUse">
<stop stop-color="#FD7E85"/>
<stop offset="1" stop-color="#F03C3D"/>
</linearGradient>
<linearGradient id="paint1_linear_30_1462" x1="11.2471" y1="1.50281" x2="11.2471" y2="12.003" gradientUnits="userSpaceOnUse">
<stop stop-color="#FD7E85"/>
<stop offset="1" stop-color="#F03C3D"/>
</linearGradient>
</defs>
</svg>
