<svg width="24" height="25" viewBox="0 0 24 25" fill="none" xmlns="http://www.w3.org/2000/svg">
<path d="M9.2801 16.3241L14.1347 16.339C14.4374 16.3401 14.6824 16.5935 14.6824 16.9043V19.6353C14.6824 19.9471 14.5053 20.2293 14.2294 20.3597L9.8227 22.4289C9.71974 22.4767 9.6106 22.5 9.50147 22.5C9.35629 22.5 9.21112 22.4576 9.08448 22.3738C8.86311 22.2274 8.72927 21.975 8.72927 21.7046V16.8894C8.72927 16.5766 8.97637 16.3231 9.2801 16.3241ZM19.8718 2.5C21.0476 2.5 22 3.48105 22 4.69225V6.22376C22 6.81133 21.7704 7.37557 21.3627 7.78708L14.8577 14.367C14.7454 14.4816 14.5931 14.5452 14.4355 14.5442L8.98893 14.5272C8.82317 14.5272 8.66564 14.4561 8.55238 14.332L2.57452 7.75738C2.20489 7.35117 2 6.81451 2 6.2577V4.69332C2 3.48211 2.95238 2.5 4.12819 2.5H19.8718Z" fill="#353438"/>
</svg>
