<svg width="25" height="24" viewBox="0 0 25 24" fill="none" xmlns="http://www.w3.org/2000/svg">
<path fill-rule="evenodd" clip-rule="evenodd" d="M5.5 4C4.94772 4 4.5 4.44772 4.5 5V15C4.5 15.5523 4.94772 16 5.5 16H19.5C20.0523 16 20.5 15.5523 20.5 15V5C20.5 4.44772 20.0523 4 19.5 4H5.5ZM2.5 5C2.5 3.34315 3.84315 2 5.5 2H19.5C21.1569 2 22.5 3.34315 22.5 5V15C22.5 16.6569 21.1569 18 19.5 18H13.5V20H17.5C18.0523 20 18.5 20.4477 18.5 21C18.5 21.5523 18.0523 22 17.5 22H7.5C6.94772 22 6.5 21.5523 6.5 21C6.5 20.4477 6.94772 20 7.5 20H11.5V18H5.5C3.84315 18 2.5 16.6569 2.5 15V5ZM18.2071 6.29289C18.5976 6.68342 18.5976 7.31658 18.2071 7.70711L15.2071 10.7071C15.0196 10.8946 14.7652 11 14.5 11H10.9142L8.20711 13.7071C7.81658 14.0976 7.18342 14.0976 6.79289 13.7071C6.40237 13.3166 6.40237 12.6834 6.79289 12.2929L9.79289 9.29289C9.98043 9.10536 10.2348 9 10.5 9H14.0858L16.7929 6.29289C17.1834 5.90237 17.8166 5.90237 18.2071 6.29289Z" fill="white"/>
</svg>
