<svg width="24" height="24" viewBox="0 0 24 24" fill="none" xmlns="http://www.w3.org/2000/svg">
<path d="M23.3686 4.22542L12.2918 0.547195C12.1023 0.484268 11.8975 0.484268 11.708 0.547195L0.631148 4.22542C0.447348 4.28646 0.287487 4.40356 0.17421 4.56014C0.0609337 4.71673 -1.43563e-05 4.90484 2.53655e-09 5.09785V14.2934C2.53655e-09 14.5373 0.0972516 14.7712 0.270361 14.9436C0.44347 15.1161 0.678256 15.213 0.923069 15.213C1.16788 15.213 1.40267 15.1161 1.57578 14.9436C1.74889 14.7712 1.84614 14.5373 1.84614 14.2934V6.37373L5.72187 7.65997C4.69214 9.31724 4.36469 11.3139 4.81142 13.2114C5.25815 15.109 6.44255 16.7524 8.10455 17.7808C6.02764 18.5923 4.23227 20.0602 2.91921 22.0671C2.85092 22.1682 2.80348 22.2818 2.77966 22.4014C2.75584 22.5209 2.75611 22.644 2.78045 22.7634C2.80479 22.8828 2.85271 22.9962 2.92144 23.0971C2.99016 23.1979 3.07832 23.2841 3.18078 23.3507C3.28325 23.4172 3.39797 23.4629 3.51829 23.4849C3.6386 23.5069 3.76211 23.5049 3.88164 23.4789C4.00116 23.453 4.11432 23.4036 4.21452 23.3337C4.31473 23.2638 4.39999 23.1747 4.46535 23.0717C6.20418 20.4142 8.95031 18.8912 11.9999 18.8912C15.0495 18.8912 17.7956 20.4142 19.5344 23.0717C19.6698 23.2722 19.879 23.4115 20.1166 23.4596C20.3543 23.5076 20.6014 23.4606 20.8046 23.3286C21.0077 23.1966 21.1505 22.9903 21.2022 22.7542C21.2538 22.5182 21.2102 22.2713 21.0806 22.0671C19.7675 20.0602 17.9652 18.5923 15.8952 17.7808C17.5557 16.7525 18.7389 15.1101 19.1856 13.2139C19.6322 11.3178 19.3058 9.3225 18.2779 7.66571L23.3686 5.97603C23.5525 5.91502 23.7124 5.79793 23.8257 5.64135C23.939 5.48477 24 5.29663 24 5.1036C24 4.91057 23.939 4.72243 23.8257 4.56584C23.7124 4.40926 23.5525 4.29217 23.3686 4.23117V4.22542ZM17.5383 11.5347C17.5386 12.407 17.3312 13.2669 16.9333 14.0439C16.5353 14.8208 15.9581 15.4928 15.249 16.0045C14.5399 16.5162 13.7192 16.8531 12.854 16.9876C11.9889 17.1222 11.1041 17.0504 10.2722 16.7783C9.4403 16.5062 8.68501 16.0415 8.0683 15.4223C7.4516 14.8031 6.99105 14.0471 6.72445 13.2162C6.45785 12.3854 6.39279 11.5034 6.53462 10.6427C6.67644 9.78191 7.0211 8.96693 7.54032 8.26457L11.708 9.64391C11.8975 9.70684 12.1023 9.70684 12.2918 9.64391L16.4595 8.26457C17.1607 9.21175 17.5388 10.3578 17.5383 11.5347ZM11.9999 7.80709L3.84227 5.09785L11.9999 2.38861L20.1575 5.09785L11.9999 7.80709Z" fill="white"/>
</svg>
