<svg width="21" height="21" viewBox="0 0 21 21" fill="none" xmlns="http://www.w3.org/2000/svg">
<path fill-rule="evenodd" clip-rule="evenodd" d="M1.05 4.22332C0.470101 4.22332 0 4.69555 0 5.27808C0 5.8606 0.470101 6.33283 1.05 6.33283H17.4195L14.9415 8.64273C14.7427 8.84078 14.6309 9.11037 14.6309 9.39161C14.6309 9.67284 14.7427 9.94244 14.9415 10.1405C15.1387 10.3402 15.407 10.4525 15.687 10.4525C15.967 10.4525 16.2353 10.3402 16.4325 10.1405L20.6325 5.92147C20.7204 5.83128 20.7884 5.72346 20.832 5.60505C20.8731 5.50097 20.8945 5.39006 20.895 5.27808V5.21479C20.906 5.12724 20.906 5.03865 20.895 4.9511C20.9009 4.91619 20.9009 4.88054 20.895 4.84563C20.8478 4.72904 20.7803 4.62188 20.6955 4.5292L16.4955 0.310194C16.0838 -0.103398 15.4162 -0.103398 15.0045 0.310194C14.5928 0.723785 14.5928 1.39435 15.0045 1.80794L17.4195 4.22332H1.05ZM3.58052 14.7708H19.95C20.5299 14.7708 21 15.2431 21 15.8256C21 16.4081 20.5299 16.8804 19.95 16.8804H3.58052L6.00602 19.1903C6.2048 19.3883 6.31661 19.6579 6.31661 19.9391C6.31661 20.2204 6.2048 20.49 6.00602 20.688C5.80887 20.8877 5.54049 21 5.26052 21C4.98055 21 4.71218 20.8877 4.51502 20.688L0.315021 16.469C0.227085 16.3788 0.159101 16.271 0.115521 16.1526C0.0743757 16.0485 0.0530071 15.9376 0.0525208 15.8256V15.7623C0.0587493 15.6725 0.0763926 15.5839 0.105021 15.4986C0.0991463 15.4637 0.0991463 15.4281 0.105021 15.3932C0.152196 15.2766 0.219761 15.1694 0.304521 15.0767L4.50452 10.8577C4.91625 10.4441 5.58379 10.4441 5.99552 10.8577C6.40725 11.2713 6.40725 11.9419 5.99552 12.3555L3.58052 14.7708Z" fill="white"/>
</svg>
