<svg width="18" height="21" viewBox="0 0 18 21" fill="none" xmlns="http://www.w3.org/2000/svg">
<path d="M16.2092 9.7822L8.73003 17.2614C7.25257 18.7389 4.85583 18.9719 3.24366 17.6425C2.81218 17.2884 2.4596 16.8478 2.20862 16.3493C1.95765 15.8507 1.81384 15.3051 1.78646 14.7477C1.75908 14.1902 1.84874 13.6333 2.04965 13.1126C2.25056 12.592 2.55828 12.1192 2.953 11.7247L11.6905 2.9872C12.6166 2.06114 14.1225 1.88459 15.1336 2.71193C15.4059 2.93268 15.6288 3.20821 15.7877 3.52064C15.9466 3.83307 16.0381 4.17541 16.0561 4.52544C16.0742 4.87546 16.0184 5.22536 15.8925 5.5524C15.7665 5.87944 15.5732 6.17632 15.325 6.42377L7.90237 13.8464C7.51357 14.2352 6.87726 14.2351 6.48835 13.8462C6.09944 13.4573 6.09935 12.821 6.48816 12.4322L12.6737 6.24666C12.9635 5.95683 12.9635 5.47606 12.6736 5.18614C12.3836 4.89623 11.9029 4.89617 11.613 5.186L5.52647 11.2726C4.60041 12.1986 4.42385 13.7046 5.25119 14.7157C5.47194 14.988 5.74747 15.2108 6.0599 15.3698C6.37233 15.5287 6.71467 15.6201 7.0647 15.6382C7.41473 15.6562 7.76462 15.6005 8.09166 15.4745C8.41871 15.3486 8.71559 15.1552 8.96303 14.9071L16.2655 7.60461C17.743 6.12715 17.976 3.7304 16.6466 2.11824C16.2929 1.68608 15.8526 1.33289 15.354 1.08146C14.8554 0.83004 14.3096 0.685981 13.7519 0.658589C13.1942 0.631197 12.637 0.721084 12.1163 0.92244C11.5956 1.1238 11.1229 1.43215 10.7288 1.82758L2.05493 10.5015C0.0260757 12.5303 -0.305782 15.832 1.52568 18.0452C2.01348 18.6386 2.62004 19.1233 3.30634 19.4683C3.99264 19.8132 4.74349 20.0107 5.51062 20.0481C6.27775 20.0855 7.04417 19.9619 7.7606 19.6854C8.47703 19.4088 9.12761 18.9853 9.67052 18.4422L17.2699 10.8429C17.5597 10.553 17.5597 10.0723 17.2698 9.78234C16.9798 9.49243 16.4991 9.49236 16.2092 9.7822Z" fill="black"/>
</svg>
