<svg width="27" height="26" viewBox="0 0 27 26" fill="none" xmlns="http://www.w3.org/2000/svg">
<path fill-rule="evenodd" clip-rule="evenodd" d="M21.1 20.2666V5.3333C21.1 3.56599 19.6673 2.1333 17.9 2.1333H9.36663C7.59931 2.1333 6.16663 3.56599 6.16663 5.3333V20.2666C6.16663 22.0339 7.59931 23.4666 9.36663 23.4666H17.9C19.6673 23.4666 21.1 22.0339 21.1 20.2666ZM14.3906 19.9573C14.6933 19.6506 14.7817 19.1919 14.6146 18.7946C14.5628 18.6578 14.487 18.5314 14.3906 18.4213C14.3399 18.3754 14.2865 18.3327 14.2306 18.2933C14.1712 18.2529 14.1066 18.2206 14.0386 18.1973L13.8466 18.1333C13.4916 18.0653 13.1262 18.1817 12.876 18.4426C12.7788 18.5441 12.7027 18.6637 12.652 18.7946C12.4934 19.1909 12.5862 19.6435 12.888 19.9453C13.1898 20.2471 13.6424 20.3399 14.0386 20.1813C14.1679 20.1273 14.2869 20.0515 14.3906 19.9573ZM18.9666 5.3333C18.9666 4.7442 18.4891 4.26663 17.9 4.26663H9.36663C8.77752 4.26663 8.29996 4.7442 8.29996 5.3333V20.2666C8.29996 20.8557 8.77752 21.3333 9.36663 21.3333H17.9C18.4891 21.3333 18.9666 20.8557 18.9666 20.2666V5.3333ZM12.5666 5.3333H14.828H14.8493C15.4384 5.3333 15.916 5.81086 15.916 6.39997C15.916 6.98907 15.4384 7.46663 14.8493 7.46663H12.5666C11.9775 7.46663 11.5 6.98907 11.5 6.39997C11.5 5.81086 11.9775 5.3333 12.5666 5.3333Z" fill="white"/>
</svg>
