<svg width="23" height="26" viewBox="0 0 23 26" fill="none" xmlns="http://www.w3.org/2000/svg">
<path fill-rule="evenodd" clip-rule="evenodd" d="M14.4693 0.500366C14.523 0.500366 14.5757 0.504886 14.6269 0.513567L14.798 0.514616C15.053 0.514616 15.2967 0.618366 15.4742 0.802116L21.8055 7.39837C21.973 7.57212 22.0669 7.80587 22.0669 8.04712V19.5046C22.0892 22.6409 19.6467 25.2034 16.5055 25.3309L6.48171 25.3321H6.34546C3.28303 25.2629 0.826912 22.7861 0.752086 19.7536L0.751709 6.11337C0.824209 3.01212 3.38546 0.514616 6.46421 0.514616L14.3118 0.513567C14.363 0.504886 14.4156 0.500366 14.4693 0.500366ZM13.5317 2.38912L6.46671 2.38962C4.39546 2.38962 2.67546 4.06712 2.62671 6.13587V19.5046C2.58046 21.6459 4.26796 23.4096 6.38796 23.4571H16.468C18.5542 23.3709 20.2067 21.6371 20.1918 19.5121L20.1917 9.22912L17.6793 9.23037C15.3918 9.22412 13.5318 7.35912 13.5318 5.07412L13.5317 2.38912ZM14.2358 16.2605C14.7533 16.2605 15.1733 16.6805 15.1733 17.198C15.1733 17.7155 14.7533 18.1355 14.2358 18.1355H7.48583C6.96833 18.1355 6.54833 17.7155 6.54833 17.198C6.54833 16.6805 6.96833 16.2605 7.48583 16.2605H14.2358ZM11.6797 11.5705C12.1972 11.5705 12.6172 11.9905 12.6172 12.508C12.6172 13.0255 12.1972 13.4455 11.6797 13.4455H7.48471C6.96721 13.4455 6.54721 13.0255 6.54721 12.508C6.54721 11.9905 6.96721 11.5705 7.48471 11.5705H11.6797ZM15.4067 3.44037L15.4068 5.07412C15.4068 6.32912 16.4281 7.35162 17.6818 7.35537L19.1642 7.35412L15.4067 3.44037Z" fill="white"/>
</svg>
