<svg width="22" height="21" viewBox="0 0 22 21" fill="none" xmlns="http://www.w3.org/2000/svg">
<g clip-path="url(#clip0_43_2041)">
<path d="M21.1767 1.87397C20.9667 1.81027 20.6534 1.72347 20.2667 1.64192V1.14107C20.2674 0.83576 20.0685 0.565836 19.7767 0.476074C18.8393 0.190817 17.868 0.0319151 16.8885 0.00357411C14.7986 -0.107483 12.7472 0.597233 11.1667 1.96917C7.99219 -0.900476 3.79429 0.0921242 2.55844 0.473974C2.26532 0.563527 2.06552 0.834581 2.06669 1.14107V1.64192C1.68169 1.72347 1.36669 1.81027 1.15844 1.87397C0.865322 1.96353 0.665515 2.23458 0.666692 2.54107V16.1491C0.665335 16.5338 0.975693 16.847 1.36039 16.8491C1.42793 16.8489 1.49511 16.8391 1.55989 16.82C2.39178 16.5816 3.2468 16.4329 4.11034 16.3766C5.33361 19.1838 8.10453 20.9989 11.1667 20.9989C14.2289 20.9989 16.9998 19.1838 18.223 16.3766C19.0862 16.4329 19.9409 16.5814 20.7724 16.8197C20.8375 16.839 20.9051 16.8489 20.973 16.8491C21.3577 16.847 21.6681 16.5338 21.6667 16.1491V2.54107C21.6681 2.23506 21.4691 1.96416 21.1767 1.87397ZM16.8717 0.703224C17.7854 0.729865 18.6916 0.877089 19.5667 1.14107L19.5765 14.3151C19.4092 14.2647 19.1544 14.1964 18.8212 14.1292C19.0519 12.0158 18.3977 9.90123 17.014 8.28723C15.6304 6.67322 13.6405 5.70373 11.5167 5.60882V2.60687C12.9121 1.28667 14.7153 0.644424 16.8689 0.703224H16.8717ZM10.8167 2.60197V5.60882C8.6926 5.70418 6.70262 6.67416 5.31897 8.28859C3.93533 9.90303 3.28134 12.018 3.51219 14.1317C3.18704 14.1989 2.93294 14.265 2.76669 14.3116V1.92857V1.14317C3.92554 0.784074 7.90154 -0.156026 10.8167 2.60197ZM1.36669 16.1491V2.54317C1.53119 2.49172 1.77269 2.42452 2.06669 2.35802V14.3116C2.06525 14.5332 2.16917 14.7424 2.34669 14.8751C2.52009 15.007 2.74571 15.0491 2.95499 14.9885C3.10689 14.9447 3.33264 14.8859 3.61999 14.8257C3.67951 15.1195 3.75641 15.4094 3.85029 15.6941C3.00937 15.7629 2.1774 15.9153 1.36669 16.1491ZM11.1667 20.3001C7.3007 20.3001 4.16669 17.1661 4.16669 13.3001C4.16669 9.43408 7.3007 6.30007 11.1667 6.30007C15.0327 6.30007 18.1667 9.43408 18.1667 13.3001C18.1623 17.1642 15.0308 20.2956 11.1667 20.3001ZM18.4841 15.693C18.578 15.4079 18.655 15.1175 18.7148 14.8233C18.9545 14.8726 19.1834 14.9283 19.3798 14.9874C19.4423 15.0054 19.5069 15.0146 19.5719 15.0147C19.7221 15.0146 19.8681 14.9655 19.9877 14.8747C20.1648 14.7419 20.2683 14.5329 20.2667 14.3116V2.35802C20.5607 2.42417 20.8018 2.49102 20.9667 2.54107L20.9709 16.1494C20.1591 15.9155 19.3261 15.7626 18.4841 15.693Z" fill="#353438"/>
<path d="M17.1167 13.3C17.1181 12.4966 16.9547 11.7015 16.6365 10.9638L16.633 10.9561C15.6959 8.76995 13.5462 7.35254 11.1677 7.35254C8.78921 7.35254 6.63954 8.76995 5.70248 10.9561L5.69898 10.9638C5.38008 11.7014 5.21593 12.4965 5.21668 13.3V13.3406C5.25003 16.1202 7.19275 18.5109 9.90668 19.1121C10.7367 19.2954 11.5967 19.2954 12.4267 19.1121C15.1397 18.51 17.0818 16.1205 17.1167 13.3417V13.3ZM6.21593 11.5735C7.18561 11.9991 8.20777 12.2934 9.25533 12.4485C9.13321 12.7159 9.06893 13.0061 9.06668 13.3C9.06668 13.3445 9.07578 13.3872 9.07823 13.4313C8.04961 13.1659 6.99407 13.0186 5.93208 12.9924C5.95976 12.5085 6.05531 12.0308 6.21593 11.5735ZM10.3109 14.4085C10.1046 14.2492 9.94697 14.0353 9.85593 13.7911C9.79631 13.6343 9.76606 13.4678 9.76668 13.3C9.76668 12.5268 10.3935 11.9 11.1667 11.9C11.9399 11.9 12.5667 12.5268 12.5667 13.3C12.5673 13.4685 12.537 13.6357 12.4771 13.7932C12.3857 14.0367 12.2281 14.2498 12.0221 14.4085C11.5163 14.791 10.8181 14.791 10.3123 14.4085H10.3109ZM13.0759 12.4485C14.1235 12.2934 15.1456 11.9991 16.1153 11.5735C16.276 12.0308 16.3716 12.5085 16.3992 12.9924C15.3371 13.0185 14.2814 13.1658 13.2527 13.4313C13.2555 13.3872 13.2646 13.3445 13.2646 13.3C13.263 13.0062 13.1995 12.7161 13.078 12.4485H13.0759ZM11.1667 8.05005C13.1447 8.04952 14.9546 9.16257 15.8465 10.9281C14.824 11.3801 13.7379 11.6718 12.6265 11.7929C11.8138 11.0024 10.5195 11.0024 9.70683 11.7929C8.59543 11.6718 7.50934 11.3801 6.48683 10.9281C7.37877 9.16257 9.18864 8.04952 11.1667 8.05005ZM5.93488 13.7011C7.06706 13.7337 8.1909 13.9059 9.28088 14.2139C9.39997 14.46 9.56649 14.6802 9.77088 14.8617C9.93718 16.016 9.91532 17.1896 9.70613 18.3369C7.61221 17.7189 6.11379 15.877 5.93488 13.7011ZM10.39 18.4835C10.5835 17.4328 10.6299 16.3603 10.5279 15.2968C10.9427 15.4343 11.3907 15.4343 11.8054 15.2968C11.7036 16.3597 11.75 17.4317 11.9433 18.4818C11.4286 18.5608 10.9049 18.5614 10.39 18.4835ZM12.6276 18.3369C12.4184 17.1896 12.3965 16.016 12.5628 14.8617C12.7672 14.68 12.9337 14.4597 13.0528 14.2135C14.1423 13.9034 15.2662 13.7305 16.3985 13.699C16.22 15.8754 14.7217 17.7181 12.6276 18.3369Z" fill="#353438"/>
</g>
<defs>
<clipPath id="clip0_43_2041">
<rect width="21" height="21" fill="white" transform="translate(0.666687)"/>
</clipPath>
</defs>
</svg>
