<svg width="22" height="18" viewBox="0 0 22 18" fill="none" xmlns="http://www.w3.org/2000/svg">
<path fill-rule="evenodd" clip-rule="evenodd" d="M21.3333 15.3V2.7C21.3333 1.20883 19.9006 0 18.1333 0H3.2C1.43269 0 0 1.20883 0 2.7V15.3C0 16.7912 1.43269 18 3.2 18H18.1333C19.9006 18 21.3333 16.7912 21.3333 15.3ZM14.9333 7.20039C13.7551 7.20039 12.8 8.00628 12.8 9.00039C12.8 9.9945 13.7551 10.8004 14.9333 10.8004C16.1115 10.8004 17.0667 9.9945 17.0667 9.00039C17.0667 8.00628 16.1115 7.20039 14.9333 7.20039ZM19.2 6.29967H11.7334C11.1442 6.29967 10.6667 6.70262 10.6667 7.19967V10.7997C10.6667 11.2967 11.1442 11.6997 11.7334 11.6997H19.2V6.29967ZM18.1334 1.79965C18.7225 1.79965 19.2 2.2026 19.2 2.69965V4.49965H11.7334C9.96605 4.49965 8.53336 5.70848 8.53336 7.19965V10.7997C8.53336 12.2908 9.96605 13.4997 11.7334 13.4997H19.2V15.2997C19.2 15.7967 18.7225 16.1997 18.1334 16.1997H3.20003C2.61092 16.1997 2.13336 15.7967 2.13336 15.2997V2.69965C2.13336 2.2026 2.61092 1.79965 3.20003 1.79965H18.1334Z" fill="white"/>
</svg>
