<svg width="25" height="24" viewBox="0 0 25 24" fill="none" xmlns="http://www.w3.org/2000/svg">
<path d="M6.33337 8H10.3334" stroke="#353438" stroke-width="1.5" stroke-linecap="round" stroke-linejoin="round"/>
<path d="M21.1664 9H18.5644C16.7794 9 15.3334 10.343 15.3334 12C15.3334 13.657 16.7804 15 18.5634 15H21.1664C21.2504 15 21.2914 15 21.3264 14.998C21.8664 14.965 22.2964 14.566 22.3314 14.065C22.3334 14.033 22.3334 13.994 22.3334 13.917V10.083C22.3334 10.006 22.3334 9.967 22.3314 9.935C22.2954 9.434 21.8664 9.035 21.3264 9.002C21.2924 9 21.2504 9 21.1664 9Z" stroke="#353438" stroke-width="1.5"/>
<path d="M21.2984 9C21.2204 7.128 20.9704 5.98 20.1614 5.172C18.9904 4 17.1044 4 13.3334 4H10.3334C6.56237 4 4.67637 4 3.50537 5.172C2.33337 6.343 2.33337 8.229 2.33337 12C2.33337 15.771 2.33337 17.657 3.50537 18.828C4.67637 20 6.56237 20 10.3334 20H13.3334C17.1044 20 18.9904 20 20.1614 18.828C20.9704 18.02 21.2214 16.872 21.2984 15" stroke="#353438" stroke-width="1.5"/>
<path d="M18.3244 12H18.3344" stroke="#353438" stroke-width="2" stroke-linecap="round" stroke-linejoin="round"/>
</svg>
